<?xml version="1.0" encoding="UTF-8"?>
<!-- Created with Inkscape (http://www.inkscape.org/) -->
<svg width="1140" height="500" version="1.1" viewBox="0 0 1140 500" xmlns="http://www.w3.org/2000/svg" xmlns:cc="http://creativecommons.org/ns#" xmlns:dc="http://purl.org/dc/elements/1.1/" xmlns:rdf="http://www.w3.org/1999/02/22-rdf-syntax-ns#">
 <metadata>
  <rdf:RDF>
   <cc:Work rdf:about="">
    <dc:format>image/svg+xml</dc:format>
    <dc:type rdf:resource="http://purl.org/dc/dcmitype/StillImage"/>
    <dc:title/>
   </cc:Work>
  </rdf:RDF>
 </metadata>
 <g transform="translate(-9.4766 -9.4766)">
  <path d="m135 309v-18l-13.25 4e-3c-11.479 3e-3 -13.688 0.27067-16.525 2.0006-2.1212 1.2933-3.4865 3.0536-3.875 4.9963-0.64635 3.2317-2.3356 4.1215-2.3721 1.2494-0.053541-4.214-5.6611-8.2503-11.462-8.2503-7.1462 0-14.983 6.8117-16.136 14.026-0.71537 4.4737-2.3798 5.3911-2.3798 1.3118 0-6.2872-8.7841-15.338-14.886-15.338-1.1626 0-2.1138-0.45-2.1138-1s1.0349-1 2.2998-1c5.8655 0 14.7-9.247 14.7-15.386 0-4.0408 1.6687-3.0871 2.3798 1.3601 0.70222 4.3915 5.2365 10.259 9.7189 12.577 1.541 0.79691 5.0957 1.4489 7.8993 1.4489 4.2277 0 5.5158-0.45144 7.5497-2.646 1.3487-1.4553 2.4523-3.4803 2.4523-4.5 0-1.0197 0.45-1.854 1-1.854s1 0.92045 1 2.0454 1.1046 3.15 2.4546 4.5c2.3811 2.3811 2.89 2.4546 17 2.4546h14.545v-45h22v45h24.107c20.691 0 24.028-0.20627 23.548-1.4556-1.0065-2.6228 1.3749-13.92 4.2252-20.044 9.6184-20.667 34.885-29.345 55.613-19.101 13.817 6.8287 23.506 22.002 23.506 36.811v3.7899h30.898l-1.367-3.25c-0.75185-1.7875-5.4223-11.912-10.379-22.5l-9.0119-19.25h22.591l10.361 22.508c5.6986 12.379 10.722 22.388 11.163 22.241 0.44082-0.14694 5.4013-10.26 11.023-22.473l10.222-22.206 22.416-0.0686-2.8417 6.25c-1.563 3.4375-6.2388 13.562-10.391 22.5l-7.549 16.25h36.865v-45.033l52.5 0.53321 0.28893 8.75 0.28894 8.75h-30.078v13h26v14h68v-45h22v45h29.27l-2.5472-2.0036c-1.401-1.102-3.7117-4.3404-5.1349-7.1964-4.5199-9.0702-3.0934-18.207 4.0321-25.825 16.542-17.685 51.154-9.9928 54.107 12.025l0.53647 3.9997h-11.632c-7.0878-4e-5 -11.632-0.39069-11.632-1 0-2.0955-4.1044-5-7.0657-5-4.9004 0-6.9343 1.6062-6.9343 5.4762 0 1.8732 0.5062 3.7186 1.1249 4.101s4.7479 1.3239 9.176 2.0924c9.0967 1.5786 16.439 5.1313 20.748 10.039l2.9116 3.3161 71.942-0.52499-9.9513-21.455c-5.4732-11.8-9.9513-21.827-9.9513-22.281s5.4115-0.69912 12.026-0.54469l12.026 0.28078 10.224 22.216c13.123 28.513 12.508 28.294 21.724 7.7248l6.5-14.507 9.877 0.5669 6.4871 14.299c9.0681 19.989 8.4971 20.207 21.697-8.2995l10.187-22 12.126-0.28078c6.6693-0.15443 12.126-0.01663 12.126 0.30622s-4.3224 9.8992-9.6052 21.281-9.8359 21.269-10.118 21.972c-0.40466 1.0091 2.4605 1.2196 13.608 1l14.121-0.27818 20.561-44h10.832l20.946 44.5h32.654v-45.14l21.75 0.31992c21.351 0.31405 21.843 0.36892 26.813 2.9922 13.53 7.1408 20.264 22.616 15.697 36.078l-1.9505 5.75h14.39c13.945 0 14.466-0.0759 16.845-2.4546 1.35-1.35 2.4546-3.375 2.4546-4.5s0.45-2.0454 1-2.0454 1 0.83864 1 1.8636c0 3.0916 4.8488 7.1364 8.5548 7.1364 3.172 0 3.3546-0.22644 5.4419-6.75 1.1879-3.7125 2.3799-7.425 2.6488-8.25 0.8404-2.5779 1.8887 0.47164 5.4348 15.809l3.3083 14.309 4.1486-21.309c3.9388-20.231 5.5878-25.052 6.2634-18.309 0.3724 3.7168 6.2023 44.688 6.5214 45.831 0.1276 0.45704 1.7108-5.5055 3.5181-13.25 1.8074-7.7445 3.6904-14.081 4.1845-14.081 0.874 0 1.392 1.5644 4.2997 12.986l1.3966 5.4859 1.6396-5.6398c0.9017-3.1019 1.6395-6.1331 1.6395-6.7359 0-0.70882 3.0032-1.0961 8.5-1.0961 4.675 0 8.4983-0.3375 8.4963-0.75 0-0.4125-0.9263-2.2632-2.0539-4.1128s-1.889-3.524-1.6919-3.721c0.6887-0.68869 20.7 8.0929 20.7 9.0838 0 1.0414-20.029 9.7543-20.755 9.0286-0.2274-0.2274 0.5356-1.7463 1.6956-3.3754s2.1091-3.23 2.1091-3.5576-3.3431-0.59563-7.429-0.59563h-7.4291l-1.4806 5.25c-0.8144 2.8875-1.7821 6.7125-2.1504 8.5-1.2458 6.0448-2.2607 4.3168-6.314-10.75-1.1342-4.2164-1.1086-4.2788-5.2258 12.75-1.7619 7.2875-3.5547 13.25-3.984 13.25s-1.3009-3.7125-1.9369-8.25-2.1802-15.45-3.4317-24.25l-2.2754-16-1.1093 5c-0.6102 2.75-2.3749 11.636-3.9216 19.746s-3.2622 14.748-3.8122 14.75c-0.55 2e-3 -2.559-6.7401-4.4643-14.982-1.9054-8.242-3.7516-14.654-4.1026-14.25s-1.2131 2.8732-1.9156 5.4857c-1.1596 4.3118-1.551 4.75-4.2432 4.75-4.2613 0-8.6212 2.9346-9.992 6.7256-1.4712 4.0685-2.3579 4.1463-3.1322 0.27502-0.38853-1.9427-1.7538-3.703-3.875-4.9963-2.8474-1.736-5.0465-1.9973-16.838-2.0006l-13.563-0.00374-5.5876 5.8322 8.6067 14.63c4.7337 8.0465 8.6067 14.834 8.6067 15.084s-5.7375 0.44616-12.75 0.43677l-12.75-0.01708-12.647-21.966h-12.853v22h-22v-36h-15.5c-8.525 0-15.5 0.40008-15.5 0.88906 0 0.48899 3.6 8.4139 8 17.611s8 16.897 8 17.111c0 0.21398-4.9424 0.38906-10.983 0.38906h-10.983l-5.0674-10h-34.077l-2.0779 5-2.0779 5h-22.598l7.3838-15.975c4.0611-8.7861 7.8782-16.899 8.4826-18.028 1.0873-2.0317 0.95067-2.0501-13.156-1.7752l-14.255 0.27776-16.233 35-16.427 0.58201-13.667-28.582-3.7375 8c-2.0556 4.4-5.0211 10.812-6.59 14.25l-2.8525 6.25-16.584-0.018-16.221-35.481-36.251-0.26259c-34.299-0.24846-36.21-0.16769-35.493 1.5 0.41717 0.96942 0.96736 4.5351 1.2226 7.9236 0.40522 5.3785 0.10345 6.8238-2.3759 11.379-5.6274 10.339-16.412 15.584-30.297 14.733-8.8255-0.54092-15.568-3.3227-20.845-8.6001-3.9682-3.9682-7.1854-10.397-7.2176-14.423l-0.02196-2.7508h22.624l2.218 3c2.7201 3.6791 8.0053 4.1528 11.158 1 2.4676-2.4676 2.5194-4.1371 0.21625-6.9813-1.3792-1.7033-3.3636-2.3789-8.75-2.9793-3.8314-0.42704-8.7087-1.5106-10.838-2.4079-3.0322-1.2776-7.3164-1.6315-19.75-1.6315h-15.878v36h-22v-36h-34c-29.556 0-34 0.19608-34 1.5 0 1.2564-2.1111 1.5-13 1.5h-13v14.947l29.5 0.55347 0.28893 8.75 0.28894 8.75h-53.078v-36.043l-38.067 0.54319-16.433 35.575-10.858-0.5751-16.294-35h-32.574l-1.7159 5.5c-2.3585 7.5596-4.5462 11.489-9.22 16.559-15.618 16.943-42.312 18.028-59.258 2.4082-4.7708-4.3975-11.021-15.468-12.16-21.538l-0.64346-3.43h-47.777v14h30v22h-52zm115.6-4.8424c2.145-1.5633 5.925-5.0508 8.4-7.75l4.5-4.9076-8.75-0.28893c-4.8125-0.15892-12.585-0.15892-17.272 0l-8.5223 0.28893 3.1762 3.8484c3.212 3.8918 12.408 11.652 13.808 11.652 0.41809 0 2.5152-1.2791 4.6602-2.8424zm594.9-10.158c-1.3978-2.703-2.0279-3-6.3652-3-4.188 0-4.9647 0.33111-5.9743 2.547-0.63829 1.4009-1.1605 2.7509-1.1605 3s3.3866 0.45295 7.5257 0.45295h7.5257zm-87.138-1.5c0.31658-0.825 0.13972-1.5-0.39301-1.5-0.53274 0-0.96862 0.675-0.96862 1.5s0.17686 1.5 0.39301 1.5c0.21616 0 0.65203-0.675 0.96862-1.5zm-40.362-0.5c0-0.55-0.45-1-1-1s-1 0.45-1 1 0.45 1 1 1 1-0.45 1-1zm-452.58-7.2168c1.1988-4.8524-0.6843-11.256-3.9367-13.387-4.0044-2.6238-9.4908-2.0711-12.45 1.254l-2.5363 2.85-2.62-2.9518c-3.5262-3.9728-8.8034-3.9493-12.986 0.0579-3.0215 2.8948-5.2908 8.9752-4.399 11.787 0.28034 0.8839 0.7245 2.2923 0.98702 3.1297 0.40873 1.3039 3.1023 1.4835 18.75 1.25l18.273-0.27266zm575.93 0.46676c-0.85474-2.0625-1.7004-3.9061-1.8792-4.0969-0.17883-0.19079-1.2657 1.4967-2.4152 3.75l-2.0901 4.0969h7.9386zm97.178-0.82727c3.2347-1.535 6.4784-6.4698 6.4784-9.856 0-3.4495-2.9632-8.4964-5.8716-10-2.0136-1.0413-5.7277-1.5664-11.079-1.5664h-8.0497v23h7.5989c4.8484 0 8.802-0.5709 10.923-1.5773zm-652.52-88.923v-22.5h7v22.406l11.109-11.203c10.792-10.883 11.234-11.203 15.5-11.203 2.4153 0 4.3914 0.34639 4.3914 0.76975s-4.2762 5.0282-9.5027 10.233l-9.5026 9.4631 24.475 24.534h-11.009l-18.894-18.973-3.2834 3.1824c-3.0274 2.9343-3.2834 3.6739-3.2834 9.4863v6.3038h-7zm53.99 21.75c-6e-3 -0.4125 4.5676-10.538 10.163-22.5 7.2027-15.399 10.654-21.75 11.819-21.75 1.1643 0 4.6263 6.3596 11.84 21.75 5.6071 11.962 10.193 22.088 10.192 22.5-2e-3 0.4125-1.7484 0.75-3.8817 0.75-3.3668 0-4.0427-0.39589-5.1213-3l-1.2426-3h-23.515l-1.2426 3c-1.0787 2.6041-1.7545 3-5.1213 3-2.1333 0-3.8834-0.3375-3.8892-0.75zm29.735-13.5c-2.2956-5.8658-7.134-15.75-7.7098-15.75-0.57244 0-4.6451 8.3162-7.7131 15.75-0.38813 0.94042 1.5184 1.25 7.6981 1.25 6.1654 0 8.092-0.31175 7.7248-1.25zm33.775 12.35c-14.755-6.846-18.027-25.742-6.3721-36.799 4.411-4.185 9.6772-6.3059 15.59-6.2787 4.729 0.0217 13.282 3.0754 13.282 4.7421 0 0.47399-1.242 2.0518-2.7601 3.5062-2.0053 1.9212-3.1676 2.3868-4.25 1.7024-0.81943-0.51807-3.859-0.94885-6.7546-0.95727-4.5839-0.0133-5.7353 0.41597-8.9041 3.3199-3.1687 2.9039-3.6896 4.0355-4.0276 8.75-0.45973 6.4124 0.89119 9.4556 5.6088 12.635 5.4364 3.6636 14.059 2.6336 18.033-2.154 1.1476-1.3828 0.75913-1.5659-3.3228-1.5659-4.6161 0-4.6224-0.00478-4.6224-3.5v-3.5h10c9.7102 0 9.9994 0.0652 9.978 2.25-0.0346 3.5442-3.4206 9.9528-7.1059 13.449-6.6468 6.3062-16.45 8.0764-24.372 4.4008zm53.33-0.12694c-2.0182-1.0661-4.7182-3.4087-6-5.2058-2.1887-3.0686-2.3496-4.3171-2.645-20.517l-0.31446-17.25h7.9881l0.3204 15.589 0.32039 15.589 2.8058 2.411c3.5858 3.0814 7.8034 3.081 11.388-9e-4l2.8058-2.412 0.6795-31.176h7.8205l-0.0165 16.25c-0.0152 15-0.18987 16.556-2.2704 20.23-4.4006 7.7698-14.852 10.736-22.883 6.4936zm53.17-6.1519v-8.1787l-8-13.825c-4.4-7.6035-8-14.048-8-14.321 0-0.27324 2.1399-0.4968 4.7553-0.4968h4.7553l4.9947 8.9826c2.7471 4.9404 5.2197 8.9849 5.4947 8.9877 0.275 3e-3 2.7739-3.9269 5.5532-8.7326l5.0532-8.7377 4.6968-0.30479c2.5833-0.16764 4.6953 0.0574 4.6934 0.5-2e-3 0.44263-3.6019 7.0273-8 14.633l-7.9965 13.828v15.844h-8zm26.422 6.522c0.34963-0.91114 5.0103-11.028 10.357-22.482 6.6288-14.201 10.227-20.831 11.31-20.843 1.548-0.0176 4.5249 5.7046 17.809 34.232l5.0058 10.75h-3.9258c-3.3506 0-4.1531-0.43956-5.4772-3l-1.5514-3h-23.706l-1.2426 3c-1.0868 2.6237-1.7426 3-5.2283 3-3.2994 0-3.8762-0.28522-3.35-1.6566zm27.281-18.093c-1.8271-3.7125-3.77-7.8284-4.3176-9.1466-0.91918-2.2127-1.3173-1.726-5.1905 6.346-2.3072 4.8084-4.195 8.9244-4.195 9.1466s3.8307 0.40396 8.5126 0.40396h8.5126zm86.797 17.908c-3.8225-2.3371-5.1697-3.994-6.028-7.4139-0.66737-2.659-0.56092-2.7444 3.4196-2.7444 2.7748 0 4.1084 0.43658 4.1084 1.345 0 2.3414 3.532 4.655 7.1062 4.655 4.7179 0 7.8938-2.408 7.8938-5.9853 0-3.7093-2.073-5.7052-7.295-7.0233-8.2554-2.0839-11.199-3.6007-13.439-6.9248-2.7428-4.07-2.8672-7.4766-0.43863-12.005 4.6909-8.7467 18.706-9.5551 25.084-1.4468 5.0693 6.4446-0.87882 9.2642-6.8812 3.2618-2.7156-2.7156-3.6063-3.0449-6.8236-2.5228-4.0332 0.6545-6.2069 2.8196-6.2069 6.1823 0 3.1535 3.052 5.4065 9.6567 7.1286 3.2138 0.83794 7.0424 2.2306 8.5081 3.0947 7.048 4.1555 6.2226 15.595-1.4633 20.281-4.2405 2.5856-13.066 2.646-17.201 0.11784zm31.479 1.0917c-0.0113-0.4125 4.562-10.538 10.163-22.5 7.2799-15.548 10.658-21.75 11.849-21.75 1.192 0 4.5557 6.202 11.837 21.825 5.5945 12.004 10.172 22.129 10.172 22.5 0 0.37129-1.7454 0.67508-3.8787 0.67508-3.3668 0-4.0427-0.39589-5.1213-3l-1.2426-3h-23.515l-1.2426 3c-1.0787 2.6041-1.7545 3-5.1213 3-2.1333 0-3.8879-0.3375-3.8993-0.75zm29.745-13.5c-2.3197-5.9274-7.1373-15.75-7.7248-15.75s-5.4051 9.8226-7.7248 15.75c-0.36718 0.93825 1.5594 1.25 7.7248 1.25s8.092-0.31175 7.7248-1.25zm23.62 12.706c-0.32589-0.84927-0.36093-10.862-0.0779-22.25 0.40621-16.342 0.80115-20.764 1.874-20.981 1.1569-0.23422 4.6797 2.6817 20.392 16.879 2.0016 1.8086 2.1951 1.6906 12.5-7.6167 5.7568-5.1995 11.029-9.4612 11.717-9.4705 0.96346-0.013 1.25 5.1409 1.25 22.483v22.5h-7.9451l-0.27745-13.977-0.27746-13.977-7 6.4312c-3.85 3.5372-7.3827 6.452-7.8504 6.4775-0.46775 0.0255-4.1802-2.9339-8.25-6.5763l-7.3995-6.6226v28.245h-4.0314c-2.7122 0-4.2253-0.5053-4.6239-1.5441zm57.645 0.79413c-6e-3 -0.4125 4.5676-10.538 10.163-22.5 7.2027-15.399 10.654-21.75 11.819-21.75 1.1643 0 4.6263 6.3596 11.84 21.75 5.6071 11.962 10.193 22.088 10.192 22.5-2e-3 0.4125-1.7484 0.75-3.8817 0.75-3.3668 0-4.0427-0.39589-5.1213-3l-1.2426-3h-23.515l-1.2426 3c-1.0787 2.6041-1.7545 3-5.1213 3-2.1333 0-3.8834-0.3375-3.8892-0.75zm29.735-13.5c-2.3197-5.9274-7.1373-15.75-7.7248-15.75s-5.4051 9.8226-7.7248 15.75c-0.36718 0.93825 1.5594 1.25 7.7248 1.25s8.092-0.31175 7.7248-1.25zm-226.72-6.25v-3.5h24v7h-24z" fill="#a3a3a3"/>
  <path d="m135 309v-18l-13.25 4e-3c-11.479 3e-3 -13.688 0.27067-16.525 2.0006-2.1212 1.2933-3.4865 3.0536-3.875 4.9963-0.64635 3.2317-2.3356 4.1215-2.3721 1.2494-0.053541-4.214-5.6611-8.2503-11.462-8.2503-7.1462 0-14.983 6.8117-16.136 14.026-0.71537 4.4737-2.3798 5.3911-2.3798 1.3118 0-6.2872-8.7841-15.338-14.886-15.338-1.1626 0-2.1138-0.45-2.1138-1s1.0349-1 2.2998-1c5.8655 0 14.7-9.247 14.7-15.386 0-4.0408 1.6687-3.0871 2.3798 1.3601 0.70222 4.3915 5.2365 10.259 9.7189 12.577 1.541 0.79691 5.0957 1.4489 7.8993 1.4489 4.2277 0 5.5158-0.45144 7.5497-2.646 1.3487-1.4553 2.4523-3.4803 2.4523-4.5 0-1.0197 0.45-1.854 1-1.854s1 0.92045 1 2.0454 1.1046 3.15 2.4546 4.5c2.3811 2.3811 2.89 2.4546 17 2.4546h14.545v-45h22v45h48v-5.0316c0-2.7674 0.93011-7.7925 2.0669-11.167 5.1123-15.176 17.189-25.312 33.482-28.103 22.253-3.8118 45.165 14.503 46.301 37.012l0.36807 7.2888h15.891c8.7399 0 15.891-0.22427 15.891-0.49837 0-0.27411-4.5-10.175-10-22.002s-10-21.728-10-22.002c0-0.2741 4.8375-0.49165 10.75-0.48343l10.75 0.0149 10.167 22.235c5.592 12.229 10.736 22.235 11.43 22.235 0.69479 0 5.8502-9.9 11.456-22l10.193-22 10.626-0.28383c5.9552-0.15903 10.626 0.11783 10.626 0.62987 0 0.50252-4.5 10.494-10 22.204s-10 21.439-10 21.62c0 0.1816 8.55 0.33017 19 0.33017h19v-45h51v17.947l-29.5 0.55347v13l26.5 0.55805v12.942h68v-45.068l21.5 0.56766 0.53826 44.5h29.354l-3.0842-3.25c-8.4868-8.943-9.3432-19.88-2.3163-29.58 3.6148-4.9901 8.8656-8.4562 16.036-10.586 7.1547-2.1247 12.43-1.9954 20.519 0.50298 5.4442 1.6815 7.7554 3.0909 11.889 7.25 3.2403 3.26 5.5796 6.6796 6.3475 9.2787 2.2507 7.6176 2.576 7.384-10.284 7.384-9.2957 0-11.5-0.27361-11.5-1.4274 0-2.0536-4.85-5.5726-7.6803-5.5726-2.6376 0-7.3197 4.0579-7.3197 6.3438 0 0.78907 0.83299 2.4634 1.8511 3.7207 1.4667 1.8113 3.3129 2.4422 8.8898 3.0381 8.2138 0.87765 15.202 4.0968 20.205 9.3082l3.4462 3.5893h36.304c19.967 0 36.304-0.20744 36.304-0.46099 0-0.25354-4.5-10.216-10-22.138s-10-21.84-10-22.039c0-0.1991 5.3066-0.362 11.792-0.362h11.792l10.349 22.5c9.7573 21.214 10.503 22.5 13.046 22.5 2.4987 0 3.177-1.0492 9.2127-14.25l6.5155-14.25 8.955-0.59581 6.5751 14.298c6.0608 13.18 6.7976 14.319 9.4186 14.571 2.785 0.26745 3.0575-0.18992 13.256-22.25l10.412-22.523h11.838c6.5106 0 11.838 0.17092 11.838 0.37983s-4.5 9.9603-10 21.67-10 21.676-10 22.148 6.3813 0.73277 14.181 0.58017l14.181-0.27746 20.528-44h10.158l20.699 44 33.253 0.54836v-45.048h19.385c22.053 0 26.222 0.83975 34.235 6.8955 7.1582 5.4102 11.38 14.026 11.38 23.224 0 3.9109-0.65529 8.5131-1.5 10.535-0.825 1.9745-1.5 3.76-1.5 3.9679 0 0.20784 6.5454 0.37788 14.545 0.37788 14.11 0 14.619-0.0735 17-2.4546 1.35-1.35 2.4546-3.375 2.4546-4.5s0.45-2.0454 1-2.0454 1 0.83864 1 1.8636c0 3.0916 4.8488 7.1364 8.5548 7.1364 3.172 0 3.3546-0.22644 5.4419-6.75 1.1879-3.7125 2.3799-7.425 2.6488-8.25 0.8404-2.5779 1.8887 0.47164 5.4348 15.809l3.3083 14.309 4.1486-21.309c3.9388-20.231 5.5878-25.052 6.2634-18.309 0.3724 3.7168 6.2023 44.688 6.5214 45.831 0.1276 0.45704 1.7108-5.5055 3.5181-13.25 1.8074-7.7445 3.6904-14.081 4.1845-14.081 0.874 0 1.392 1.5644 4.2997 12.986l1.3966 5.4859 1.6396-5.6398c0.9017-3.1019 1.6395-6.1331 1.6395-6.7359 0-0.70882 3.0032-1.0961 8.5-1.0961 4.675 0 8.4983-0.3375 8.4963-0.75 0-0.4125-0.9263-2.2632-2.0539-4.1128s-1.889-3.524-1.6919-3.721c0.6887-0.68869 20.7 8.0929 20.7 9.0838 0 1.0414-20.029 9.7543-20.755 9.0286-0.2274-0.2274 0.5356-1.7463 1.6956-3.3754s2.1091-3.23 2.1091-3.5576-3.3431-0.59563-7.429-0.59563h-7.4291l-1.4806 5.25c-0.8144 2.8875-1.7821 6.7125-2.1504 8.5-1.2458 6.0448-2.2607 4.3168-6.314-10.75-1.1342-4.2164-1.1086-4.2788-5.2258 12.75-1.7619 7.2875-3.5547 13.25-3.984 13.25s-1.3009-3.7125-1.9369-8.25-2.1802-15.45-3.4317-24.25l-2.2754-16-1.1093 5c-0.6102 2.75-2.3749 11.636-3.9216 19.746s-3.2622 14.748-3.8122 14.75c-0.55 2e-3 -2.559-6.7401-4.4643-14.982-1.9054-8.242-3.7516-14.654-4.1026-14.25s-1.2131 2.8732-1.9156 5.4857c-1.1596 4.3118-1.551 4.75-4.2432 4.75-4.2613 0-8.6212 2.9346-9.992 6.7256-1.4712 4.0685-2.3579 4.1463-3.1322 0.27502-0.38853-1.9427-1.7538-3.703-3.875-4.9963-2.8546-1.7405-5.0466-1.9973-17.073-2.0006l-13.798-0.00374-2.4204 2.75c-1.3312 1.5125-2.4347 3.0456-2.452 3.407-0.0174 0.36133 2.579 5.0863 5.7698 10.5 3.1908 5.4137 7.0347 11.981 8.5422 14.593l2.7408 4.75h-24.951l-12.69-21.5-13.444-0.59138v22.091h-22v-36h-31.886l3.3246 7.25c1.8285 3.9875 5.5986 12.088 8.3779 18l5.0533 10.75h-21.723l-5.036-11h-33.694l-5.3949 11h-10.511c-5.781 0-10.511-0.27214-10.511-0.60475s3.414-7.8701 7.5867-16.75 7.8208-16.708 8.107-17.395c0.40222-0.96627-2.7534-1.25-13.902-1.25h-14.423l-16.662 36.076-15.885-0.57615-6.5742-14.287c-3.6158-7.8576-6.888-13.933-7.2715-13.5s-3.5358 6.9911-7.0053 14.574l-6.308 13.788-15.981-0.57543-16.182-35.456-72.733-0.04427 0.66875 2.25c2.7207 9.1538 1.2532 16.55-4.6038 23.204-4.8853 5.55-12.512 9.3403-20.458 10.167-16.724 1.7408-31.222-7.6322-33.902-21.918l-0.69478-3.7035 22.723 0.012 1.7035 2.9937c3.1819 5.5925 13.797 3.6008 13.797-2.5881 0-3.3328-4.4791-6.4113-9.3849-6.4502-2.2633-0.01795-6.5901-0.90326-9.6151-1.9674-4.5513-1.601-8.3029-1.9403-21.75-1.9674l-16.25-0.03265v36h-22v-36h-34c-29.556 0-34 0.19608-34 1.5 0 1.2593-2.1667 1.5-13.5 1.5h-13.5v15h30v18h-51v-36.042l-39.409 0.54228-16.241 35h-10.452l-16.398-35.496-33.277-4e-3 -0.69192 3.6882c-0.38055 2.0285-2.0406 6.3599-3.6889 9.6252-12.429 24.622-45.343 30.113-65.17 10.872-5.8711-5.6976-8.9852-10.84-11.164-18.435l-1.6496-5.7495h-47.858v14h30v22h-52zm125.25-13.417c1.5125-1.9121 2.75-3.7256 2.75-4.03 0-0.30439-7.6658-0.55343-17.035-0.55343-15.915 0-16.973 0.11509-16.097 1.75 1.4001 2.6108 7.8793 9.0545 12.39 12.322l3.9741 2.8788 5.6341-4.4453c3.0987-2.4449 6.8716-6.0098 8.3841-7.9218zm586.75 2.0658c0-0.19292-0.49402-1.7679-1.0978-3.5-1.0478-3.0057-1.3429-3.1492-6.4743-3.1492-4.9424 0-5.4997 0.23823-6.9022 2.9503-0.83912 1.6227-1.5257 3.1977-1.5257 3.5s3.6 0.54966 8 0.54966 8-0.15785 8-0.35078zm-128.64-5.1492c0.38957-1.0152-0.05049-1.5-1.3616-1.5s-1.7512 0.48478-1.3616 1.5c0.31659 0.825 0.92932 1.5 1.3616 1.5s1.045-0.675 1.3616-1.5zm40.638-0.55902c0-0.51754-0.66088-0.94098-1.4686-0.94098-0.89208 0-1.2435 0.5866-0.89521 1.4943 0.59029 1.5383 2.3638 1.1232 2.3638-0.55328zm-493.63-5.191c0.33164-1.2375 0.60913-4.128 0.61664-6.4233 0.0265-8.0899-7.9426-13.469-14.744-9.9522-1.6502 0.85334-3.2828 2.2876-3.628 3.1873-0.52463 1.3672-1.103 1.1269-3.5224-1.463-3.4423-3.685-7.0804-4.013-11.902-1.0732-5.1076 3.114-7.7207 11.245-5.1546 16.04 0.96572 1.8044 2.2665 1.9343 19.383 1.9343 18.182 0 18.354-0.0203 18.951-2.25zm577.63 1.8592c0-0.21493-0.85732-2.3057-1.9052-4.6461l-1.9052-4.2553-2.0948 4.1062c-1.1522 2.2584-2.0948 4.3492-2.0948 4.6461s1.8 0.53984 4 0.53984 4-0.17586 4-0.3908zm95.434-3.5843c7.0181-2.6683 8.5708-13.951 2.6481-19.242-2.9163-2.6057-3.6848-2.7824-12.098-2.7824h-8.9842v23h7.9349c4.3642 0 9.089-0.43878 10.5-0.97507zm-652.2-89.275 0.26913-22.25 6.5-0.62672v22.594l11.266-11.234c10.993-10.962 11.374-11.234 15.744-11.234h4.4782l-20.479 20.479 24.462 24.521h-4.5038c-4.3735 0-4.7915-0.28881-14.452-9.9858l-9.9483-9.9858-3.2829 3.1819c-3.0771 2.9825-3.2829 3.6085-3.2829 9.9858v6.8038h-7.0383zm53.769 21.864c0-0.97948 20.095-43.109 20.988-44.002 0.65087-0.65087 1.3568-0.66735 1.9779-0.0462 0.89432 0.89432 21.034 43.02 21.034 43.997 0 0.24059-1.5823 0.43743-3.5162 0.43743-3.0339 0-3.7451-0.48005-5.1852-3.5l-1.669-3.5h-23.259l-1.669 3.5c-1.4401 3.02-2.1513 3.5-5.1852 3.5-1.9339 0-3.5162-0.17361-3.5162-0.38579zm26.675-21.614c-2.2865-4.95-4.3903-9-4.6751-9s-2.3886 4.05-4.6751 9l-4.1573 9h17.665zm40.825 21.102c-10.613-2.7155-16.919-10.769-16.913-21.602 7e-3 -12.618 8.9859-21.808 21.439-21.941 5.159-0.0552 13.974 2.732 13.974 4.4184 0 0.3706-1.0942 1.7017-2.4315 2.9581-2.3176 2.1773-2.6731 2.2224-7.5891 0.96243-4.8796-1.2506-5.4079-1.1891-9.7997 1.14-3.7008 1.9626-5.0352 3.4175-6.5804 7.1744-1.6969 4.1255-1.7832 5.23-0.6934 8.8676 3.2269 10.77 15.718 14.006 23.629 6.1213l2.71-2.7014-5.1223-0.30226c-4.9362-0.29128-5.1223-0.40934-5.1223-3.25v-2.9477h19.95l-0.61935 3.25c-1.3602 7.1375-5.6095 12.891-11.844 16.036-3.8237 1.9291-11.099 2.8106-14.987 1.8159zm52.104-0.14058c-3.7491-1.1219-8.4829-5.602-10.227-9.6794-0.97191-2.2715-1.3768-7.7859-1.3768-18.75v-15.532h8v14.55c0 18.754 1.1966 21.5 9.3318 21.419 7.2819-0.0731 8.6682-3.4961 8.6682-21.402v-14.566h8v15.435c0 8.5064-0.47879 16.699-1.0666 18.25-1.5168 4.0032-4.8058 7.2893-9.4334 9.4251-4.3192 1.9934-7.354 2.2107-11.896 0.85161zm50.396-7.483v-8.5214l-6.884-11.828c-10.476-17.998-9.9329-16.13-4.6839-16.13h4.5025l11.29 19.183 10.903-19.183h4.4365c2.4401 0 4.4365 0.23651 4.4365 0.52558 0 0.28906-3.6 6.6885-8 14.221l-8 13.695v16.558h-8zm26.925 6.3317c4.1008-10.284 20.053-42.364 21.168-42.57 0.94182-0.17406 4.7932 6.9562 11.657 21.581 5.6375 12.012 10.25 22.142 10.25 22.51 0 0.36811-1.598 0.66929-3.551 0.66929-3.1191 0-3.7305-0.42952-5.0266-3.5315l-1.4756-3.5315-23.288 0.56301-1.6536 3c-1.2987 2.3561-2.4422 3.0666-5.3275 3.3103-3.4792 0.29382-3.6251 0.18787-2.7526-2zm27.721-16.06c-1.2806-2.8875-3.2658-7.05-4.4116-9.25l-2.0833-4-4.0757 8.6474c-2.2417 4.756-4.0757 8.9186-4.0757 9.25 0 0.33146 3.8193 0.60265 8.4874 0.60265h8.4874zm86.684 16.313c-4.3424-1.9716-6.3307-4.4834-6.3307-7.9973 0-1.6286 0.63484-2.0657 3-2.0657 1.65 0 3 0.45 3 1 0 2.5325 4.1183 5 8.345 5 5.1824 0 7.655-2.1982 7.655-6.8057 0-3.7862-2.3874-5.6122-9.3767-7.1715-9.5924-2.1401-12.568-5.0614-12.601-12.373-0.0191-4.1716 0.4408-5.313 3.288-8.1603 6.2131-6.2131 17.763-5.4871 22.403 1.4082 3.2216 4.7874 2.9602 6.1021-1.2134 6.1021-1.925 0-3.5-0.45-3.5-1 0-2.1774-4.1083-5-7.2775-5-5.1528 0-7.8917 2.4792-7.5272 6.8136 0.34766 4.1345 1.8921 5.2105 11.02 7.6773 3.1432 0.84948 6.9682 2.6226 8.5 3.9402 2.357 2.0274 2.7852 3.1654 2.7852 7.4017 0 3.9506-0.52709 5.5773-2.5 7.7155-5.0985 5.5256-12.376 6.8261-19.669 3.5147zm30.836 1.0268c0.18333-0.50055 4.8333-10.629 10.333-22.508 6.8754-14.85 10.452-21.516 11.446-21.337 1.0928 0.19756 22.054 42.364 22.054 44.365 0 0.21448-1.5823 0.38997-3.5162 0.38997-3.0339 0-3.7451-0.48005-5.1852-3.5l-1.669-3.5h-23.259l-1.669 3.5c-1.4509 3.0426-2.1394 3.5-5.2685 3.5-1.9797 0-3.4495-0.40954-3.2662-0.9101zm26.508-21.09c-2.2865-4.95-4.4132-9-4.7259-9s-2.4185 4.05-4.6794 9l-4.1109 9h17.674zm27.325-0.5c0-16.108 0.32222-22.5 1.1342-22.5 0.62378 0 5.3816 3.9375 10.573 8.75s10.039 9.1713 10.773 9.6861c0.97415 0.68366 4.1548-1.6761 11.794-8.75 5.753-5.3274 10.97-9.6861 11.593-9.6861 0.81069 0 1.1332 6.4035 1.1332 22.5v22.5h-8v-14c0-7.7-0.35631-14-0.79179-14-0.43549 0-2.798 2.0616-5.25 4.5813-2.452 2.5197-5.6454 5.4396-7.0965 6.4886l-2.6383 1.9072-14.723-13.206-0.27746 14.115-0.27745 14.115h-7.9451zm57 22.114c0-0.97948 20.095-43.109 20.988-44.002 0.65618-0.65618 1.3543-0.66982 1.9853-0.0388 0.8645 0.8645 21.027 43.1 21.027 44.047 0 0.20891-1.5823 0.37983-3.5162 0.37983-3.0339 0-3.7451-0.48005-5.1852-3.5l-1.669-3.5h-23.259l-1.669 3.5c-1.4401 3.02-2.1513 3.5-5.1852 3.5-1.9339 0-3.5162-0.17361-3.5162-0.38579zm26.675-21.614c-2.2865-4.95-4.3903-9-4.6751-9s-2.3886 4.05-4.6751 9l-4.1573 9h17.665zm-223.68 1.4683v-3.5317l23.5 0.56347 0.62672 6.5h-24.127z" fill="#e41d1f"/>
  <path d="m135 309v-18h-13.923c-13.52 0-14.012 0.075-17 2.5889-1.6922 1.4239-3.0767 3.2239-3.0767 4 0 0.77611-0.45 1.4111-1 1.4111s-1-0.635-1-1.4111c0-0.7761-1.3845-2.5761-3.0767-4-3.6402-3.063-11.15-3.5575-15.993-1.053-3.4459 1.782-8.9306 8.9147-8.9306 11.614 0 2.8991-1.687 2.1651-2.3221-1.0104-0.83189-4.1594-5.4533-9.1527-10.563-11.413l-4.4511-1.9689 3.9181-1.3371c4.7234-1.612 10.25-7.3289 11.075-11.458 0.66221-3.311 2.3426-5.0493 2.3426-2.4232 0 3.3293 3.4355 8.763 7.3191 11.576 3.3646 2.4373 4.937 2.8838 10.157 2.8838 5.1624 0 6.5324-0.37975 8.35-2.3144 1.1959-1.273 2.1743-2.848 2.1743-3.5s0.45-1.1856 1-1.1856 1 0.59656 1 1.3257c0 0.72912 1.0415 2.3041 2.3144 3.5 2.1594 2.0286 3.2983 2.1743 17 2.1743h14.686v-45h22v45h48v-5.0316c0-2.7674 0.93011-7.7925 2.0669-11.167 5.1123-15.176 17.189-25.312 33.482-28.103 22.253-3.8118 45.165 14.503 46.301 37.012l0.36807 7.2888h15.891c8.7399 0 15.891-0.22427 15.891-0.49837 0-0.27411-4.5-10.175-10-22.002s-10-21.728-10-22.002c0-0.2741 4.8375-0.49165 10.75-0.48343l10.75 0.0149 10.167 22.235c5.592 12.229 10.736 22.235 11.43 22.235 0.69479 0 5.8502-9.9 11.456-22l10.193-22 10.626-0.28383c5.9552-0.15903 10.626 0.11783 10.626 0.62987 0 0.50252-4.5 10.494-10 22.204s-10 21.439-10 21.62c0 0.1816 8.55 0.33017 19 0.33017h19v-45h51v17.947l-29.5 0.55347v13l26.5 0.55805v12.942h68v-45.068l21.5 0.56766 0.53826 44.5h29.354l-3.0842-3.25c-8.4868-8.943-9.3432-19.88-2.3163-29.58 3.6148-4.9901 8.8656-8.4562 16.036-10.586 7.1547-2.1247 12.43-1.9954 20.519 0.50298 5.4442 1.6815 7.7554 3.0909 11.889 7.25 3.2403 3.26 5.5796 6.6796 6.3475 9.2787 2.2507 7.6176 2.576 7.384-10.284 7.384-9.2957 0-11.5-0.27361-11.5-1.4274 0-2.0536-4.85-5.5726-7.6803-5.5726-2.6376 0-7.3197 4.0579-7.3197 6.3438 0 0.78907 0.83299 2.4634 1.8511 3.7207 1.4667 1.8113 3.3129 2.4422 8.8898 3.0381 8.2138 0.87765 15.202 4.0968 20.205 9.3082l3.4462 3.5893h36.304c19.967 0 36.304-0.20744 36.304-0.46099 0-0.25354-4.5-10.216-10-22.138s-10-21.84-10-22.039c0-0.1991 5.3066-0.362 11.792-0.362h11.792l10.349 22.5c9.7573 21.214 10.503 22.5 13.046 22.5 2.4987 0 3.177-1.0492 9.2127-14.25l6.5155-14.25 8.955-0.59581 6.5751 14.298c6.0608 13.18 6.7976 14.319 9.4186 14.571 2.785 0.26745 3.0575-0.18992 13.256-22.25l10.412-22.523h11.838c6.5106 0 11.838 0.17092 11.838 0.37983s-4.5 9.9603-10 21.67-10 21.676-10 22.148 6.3813 0.73277 14.181 0.58017l14.181-0.27746 20.528-44h10.158l20.699 44 33.253 0.54836v-45.048h19.385c22.053 0 26.222 0.83975 34.235 6.8955 7.1582 5.4102 11.38 14.026 11.38 23.224 0 3.9109-0.65529 8.5131-1.5 10.535-0.825 1.9745-1.5 3.76-1.5 3.9679 0 0.20784 6.6716 0.37788 14.826 0.37788 14.204 0 14.917-0.097 17-2.3144 1.1959-1.273 2.1743-2.848 2.1743-3.5 0-2.0709 1.435-1.2121 3.5142 2.103 1.7232 2.7475 2.675 3.2546 6.5885 3.5097l4.5744 0.29819 1.7102-6.3181c0.9406-3.4749 2.0866-6.9271 2.5466-7.6714 0.5359-0.86705 2.2119 4.3323 4.6641 14.469l3.8276 15.822 3.2814-16.449c5.0965-25.547 5.443-27.132 5.8425-26.733 0.2062 0.20616 1.9892 11.589 3.9622 25.296 1.9731 13.706 3.6948 25.028 3.8261 25.159s1.7686-6.266 3.6385-14.216 3.7115-14.455 4.0925-14.455 1.7467 4.0398 3.0349 8.9773c2.4788 9.501 2.871 9.6016 4.9586 1.2727l1.3158-5.25h8.8109c4.8461 0 8.8093-0.3375 8.8073-0.75 0-0.4125-0.9263-2.2632-2.0539-4.1128s-1.8631-3.5499-1.6344-3.7786c0.2287-0.22868 4.8455 1.492 10.26 3.8237l9.8438 4.2395-7.9557 3.651c-4.3756 2.008-9.0371 3.9903-10.359 4.4051l-2.4032 0.75412 4.4696-7.2321h-16.836l-1.8272 8c-1.0049 4.4-2.1499 8-2.5444 8-0.3944 0-1.7711-4.0398-3.0593-8.9773-1.2882-4.9375-2.6329-8.425-2.9882-7.75-0.3553 0.67501-2.1506 7.4148-3.9896 14.977-1.8389 7.5625-3.6071 13.75-3.9292 13.75-0.3222 0-2.1074-11.019-3.9672-24.487-1.8598-13.468-3.527-24.341-3.7049-24.163-0.178 0.17795-2.1207 9.2457-4.3172 20.15s-4.17 20.003-4.3856 20.219c-0.2156 0.21559-2.1917-6.9455-4.3913-15.913l-3.9992-16.305-1.9154 6.5c-1.9078 6.4741-1.932 6.5022-6.076 7.0624-4.3814 0.5923-7.7827 2.9451-8.7744 6.0694-0.69331 2.1844-2.4581 2.5126-2.4581 0.45701 0-0.7761-1.3845-2.5761-3.0767-4-2.9998-2.5242-3.4384-2.5889-17.548-2.5889h-14.471l-2.4204 2.75c-1.3312 1.5125-2.4347 3.0456-2.452 3.407-0.0174 0.36133 2.579 5.0863 5.7698 10.5 3.1908 5.4137 7.0347 11.981 8.5422 14.593l2.7408 4.75h-24.951l-12.69-21.5-13.444-0.59138v22.091h-22v-36h-31.886l3.3246 7.25c1.8285 3.9875 5.5986 12.088 8.3779 18l5.0533 10.75h-21.723l-5.036-11h-33.694l-5.3949 11h-10.511c-5.781 0-10.511-0.27214-10.511-0.60475s3.414-7.8701 7.5867-16.75 7.8208-16.708 8.107-17.395c0.40222-0.96627-2.7534-1.25-13.902-1.25h-14.423l-16.662 36.076-15.885-0.57615-6.5742-14.287c-3.6158-7.8576-6.888-13.933-7.2715-13.5s-3.5358 6.9911-7.0053 14.574l-6.308 13.788-15.981-0.57543-16.182-35.456-72.733-0.04427 0.66875 2.25c2.7207 9.1538 1.2532 16.55-4.6038 23.204-4.8853 5.55-12.512 9.3403-20.458 10.167-16.724 1.7408-31.222-7.6322-33.902-21.918l-0.69478-3.7035 22.723 0.012 1.7035 2.9937c3.1819 5.5925 13.797 3.6008 13.797-2.5881 0-3.3328-4.4791-6.4113-9.3849-6.4502-2.2633-0.01795-6.5901-0.90326-9.6151-1.9674-4.5513-1.601-8.3029-1.9403-21.75-1.9674l-16.25-0.03265v36h-22v-36h-34c-29.556 0-34 0.19608-34 1.5 0 1.2593-2.1667 1.5-13.5 1.5h-13.5v15h30v18h-51v-36.042l-39.409 0.54228-16.241 35h-10.452l-16.398-35.496-33.277-4e-3 -0.69192 3.6882c-0.38055 2.0285-2.0406 6.3599-3.6889 9.6252-12.429 24.622-45.343 30.113-65.17 10.872-5.8711-5.6976-8.9852-10.84-11.164-18.435l-1.6496-5.7495h-47.858v14h30v22h-52zm125.25-13.417c1.5125-1.9121 2.75-3.7256 2.75-4.03 0-0.30439-7.6658-0.55343-17.035-0.55343-15.915 0-16.973 0.11509-16.097 1.75 1.4001 2.6108 7.8793 9.0545 12.39 12.322l3.9741 2.8788 5.6341-4.4453c3.0987-2.4449 6.8716-6.0098 8.3841-7.9218zm586.75 2.0658c0-0.19292-0.49402-1.7679-1.0978-3.5-1.0478-3.0057-1.3429-3.1492-6.4743-3.1492-4.9424 0-5.4997 0.23823-6.9022 2.9503-0.83912 1.6227-1.5257 3.1977-1.5257 3.5s3.6 0.54966 8 0.54966 8-0.15785 8-0.35078zm-128.64-5.1492c0.38957-1.0152-0.05049-1.5-1.3616-1.5s-1.7512 0.48478-1.3616 1.5c0.31659 0.825 0.92932 1.5 1.3616 1.5s1.045-0.675 1.3616-1.5zm40.638-0.55902c0-0.51754-0.66088-0.94098-1.4686-0.94098-0.89208 0-1.2435 0.5866-0.89521 1.4943 0.59029 1.5383 2.3638 1.1232 2.3638-0.55328zm-493.63-5.191c0.33164-1.2375 0.60913-4.128 0.61664-6.4233 0.0265-8.0899-7.9426-13.469-14.744-9.9522-1.6502 0.85334-3.2828 2.2876-3.628 3.1873-0.52463 1.3672-1.103 1.1269-3.5224-1.463-3.4423-3.685-7.0804-4.013-11.902-1.0732-5.1076 3.114-7.7207 11.245-5.1546 16.04 0.96572 1.8044 2.2665 1.9343 19.383 1.9343 18.182 0 18.354-0.0203 18.951-2.25zm577.63 1.8592c0-0.21493-0.85732-2.3057-1.9052-4.6461l-1.9052-4.2553-2.0948 4.1062c-1.1522 2.2584-2.0948 4.3492-2.0948 4.6461s1.8 0.53984 4 0.53984 4-0.17586 4-0.3908zm95.434-3.5843c7.0181-2.6683 8.5708-13.951 2.6481-19.242-2.9163-2.6057-3.6848-2.7824-12.098-2.7824h-8.9842v23h7.9349c4.3642 0 9.089-0.43878 10.5-0.97507zm-652.2-89.275 0.26913-22.25 6.5-0.62672v22.594l11.266-11.234c10.993-10.962 11.374-11.234 15.744-11.234h4.4782l-20.479 20.479 24.462 24.521h-4.5038c-4.3735 0-4.7915-0.28881-14.452-9.9858l-9.9483-9.9858-3.2829 3.1819c-3.0771 2.9825-3.2829 3.6085-3.2829 9.9858v6.8038h-7.0383zm53.769 21.864c0-0.97948 20.095-43.109 20.988-44.002 0.65087-0.65087 1.3568-0.66735 1.9779-0.0462 0.89432 0.89432 21.034 43.02 21.034 43.997 0 0.24059-1.5823 0.43743-3.5162 0.43743-3.0339 0-3.7451-0.48005-5.1852-3.5l-1.669-3.5h-23.259l-1.669 3.5c-1.4401 3.02-2.1513 3.5-5.1852 3.5-1.9339 0-3.5162-0.17361-3.5162-0.38579zm26.675-21.614c-2.2865-4.95-4.3903-9-4.6751-9s-2.3886 4.05-4.6751 9l-4.1573 9h17.665zm40.825 21.102c-10.613-2.7155-16.919-10.769-16.913-21.602 7e-3 -12.618 8.9859-21.808 21.439-21.941 5.159-0.0552 13.974 2.732 13.974 4.4184 0 0.3706-1.0942 1.7017-2.4315 2.9581-2.3176 2.1773-2.6731 2.2224-7.5891 0.96243-4.8796-1.2506-5.4079-1.1891-9.7997 1.14-3.7008 1.9626-5.0352 3.4175-6.5804 7.1744-1.6969 4.1255-1.7832 5.23-0.6934 8.8676 3.2269 10.77 15.718 14.006 23.629 6.1213l2.71-2.7014-5.1223-0.30226c-4.9362-0.29128-5.1223-0.40934-5.1223-3.25v-2.9477h19.95l-0.61935 3.25c-1.3602 7.1375-5.6095 12.891-11.844 16.036-3.8237 1.9291-11.099 2.8106-14.987 1.8159zm52.104-0.14058c-3.7491-1.1219-8.4829-5.602-10.227-9.6794-0.97191-2.2715-1.3768-7.7859-1.3768-18.75v-15.532h8v14.55c0 18.754 1.1966 21.5 9.3318 21.419 7.2819-0.0731 8.6682-3.4961 8.6682-21.402v-14.566h8v15.435c0 8.5064-0.47879 16.699-1.0666 18.25-1.5168 4.0032-4.8058 7.2893-9.4334 9.4251-4.3192 1.9934-7.354 2.2107-11.896 0.85161zm50.396-7.483v-8.5214l-6.884-11.828c-10.476-17.998-9.9329-16.13-4.6839-16.13h4.5025l11.29 19.183 10.903-19.183h4.4365c2.4401 0 4.4365 0.23651 4.4365 0.52558 0 0.28906-3.6 6.6885-8 14.221l-8 13.695v16.558h-8zm26.925 6.3317c4.1008-10.284 20.053-42.364 21.168-42.57 0.94182-0.17406 4.7932 6.9562 11.657 21.581 5.6375 12.012 10.25 22.142 10.25 22.51 0 0.36811-1.598 0.66929-3.551 0.66929-3.1191 0-3.7305-0.42952-5.0266-3.5315l-1.4756-3.5315-23.288 0.56301-1.6536 3c-1.2987 2.3561-2.4422 3.0666-5.3275 3.3103-3.4792 0.29382-3.6251 0.18787-2.7526-2zm27.721-16.06c-1.2806-2.8875-3.2658-7.05-4.4116-9.25l-2.0833-4-4.0757 8.6474c-2.2417 4.756-4.0757 8.9186-4.0757 9.25 0 0.33146 3.8193 0.60265 8.4874 0.60265h8.4874zm86.684 16.313c-4.3424-1.9716-6.3307-4.4834-6.3307-7.9973 0-1.6286 0.63484-2.0657 3-2.0657 1.65 0 3 0.45 3 1 0 2.5325 4.1183 5 8.345 5 5.1824 0 7.655-2.1982 7.655-6.8057 0-3.7862-2.3874-5.6122-9.3767-7.1715-9.5924-2.1401-12.568-5.0614-12.601-12.373-0.0191-4.1716 0.4408-5.313 3.288-8.1603 6.2131-6.2131 17.763-5.4871 22.403 1.4082 3.2216 4.7874 2.9602 6.1021-1.2134 6.1021-1.925 0-3.5-0.45-3.5-1 0-2.1774-4.1083-5-7.2775-5-5.1528 0-7.8917 2.4792-7.5272 6.8136 0.34766 4.1345 1.8921 5.2105 11.02 7.6773 3.1432 0.84948 6.9682 2.6226 8.5 3.9402 2.357 2.0274 2.7852 3.1654 2.7852 7.4017 0 3.9506-0.52709 5.5773-2.5 7.7155-5.0985 5.5256-12.376 6.8261-19.669 3.5147zm30.836 1.0268c0.18333-0.50055 4.8333-10.629 10.333-22.508 6.8754-14.85 10.452-21.516 11.446-21.337 1.0928 0.19756 22.054 42.364 22.054 44.365 0 0.21448-1.5823 0.38997-3.5162 0.38997-3.0339 0-3.7451-0.48005-5.1852-3.5l-1.669-3.5h-23.259l-1.669 3.5c-1.4509 3.0426-2.1394 3.5-5.2685 3.5-1.9797 0-3.4495-0.40954-3.2662-0.9101zm26.508-21.09c-2.2865-4.95-4.4132-9-4.7259-9s-2.4185 4.05-4.6794 9l-4.1109 9h17.674zm27.325-0.5c0-16.108 0.32222-22.5 1.1342-22.5 0.62378 0 5.3816 3.9375 10.573 8.75s10.039 9.1713 10.773 9.6861c0.97415 0.68366 4.1548-1.6761 11.794-8.75 5.753-5.3274 10.97-9.6861 11.593-9.6861 0.81069 0 1.1332 6.4035 1.1332 22.5v22.5h-8v-14c0-7.7-0.35631-14-0.79179-14-0.43549 0-2.798 2.0616-5.25 4.5813-2.452 2.5197-5.6454 5.4396-7.0965 6.4886l-2.6383 1.9072-14.723-13.206-0.27746 14.115-0.27745 14.115h-7.9451zm57 22.114c0-0.97948 20.095-43.109 20.988-44.002 0.65618-0.65618 1.3543-0.66982 1.9853-0.0388 0.8645 0.8645 21.027 43.1 21.027 44.047 0 0.20891-1.5823 0.37983-3.5162 0.37983-3.0339 0-3.7451-0.48005-5.1852-3.5l-1.669-3.5h-23.259l-1.669 3.5c-1.4401 3.02-2.1513 3.5-5.1852 3.5-1.9339 0-3.5162-0.17361-3.5162-0.38579zm26.675-21.614c-2.2865-4.95-4.3903-9-4.6751-9s-2.3886 4.05-4.6751 9l-4.1573 9h17.665zm-223.68 1.4683v-3.5317l23.5 0.56347 0.62672 6.5h-24.127z" fill="#565656"/>
  <path d="m135.68 326.35c-0.3759-0.3759-0.68345-8.4834-0.68345-18.017v-17.333h-13.923c-13.52 0-14.012 0.075-17 2.5889-1.6922 1.4239-3.0767 3.2239-3.0767 4 0 0.77611-0.45 1.4111-1 1.4111s-1-0.635-1-1.4111c0-0.7761-1.3845-2.5761-3.0767-4-3.6402-3.063-11.15-3.5575-15.993-1.053-3.4459 1.782-8.9306 8.9147-8.9306 11.614 0 2.8991-1.687 2.1651-2.3221-1.0104-0.83189-4.1594-5.4533-9.1527-10.563-11.413l-4.4511-1.9689 3.9181-1.3371c4.7234-1.612 10.25-7.3289 11.075-11.458 0.66221-3.311 2.3426-5.0493 2.3426-2.4232 0 3.3293 3.4355 8.763 7.3191 11.576 3.3646 2.4373 4.937 2.8838 10.157 2.8838 5.1624 0 6.5324-0.37975 8.35-2.3144 1.1959-1.273 2.1743-2.848 2.1743-3.5s0.45-1.1856 1-1.1856 1 0.59656 1 1.3257c0 0.72912 1.0415 2.3041 2.3144 3.5 2.1594 2.0286 3.2983 2.1743 17 2.1743h14.686v-44h22v44h47.711l0.5898-6.316c1.5825-16.946 11.886-30.386 27.503-35.875 4.4814-1.5751 7.6023-1.913 15.195-1.6454 8.3958 0.2959 10.362 0.73406 16.2 3.6109 7.8944 3.89 15.351 11.546 19.457 19.978 2.5419 5.2196 2.8011 6.7598 2.8215 16.765 0.0212 10.401-0.15675 11.38-3.1782 17.5-5.8994 11.948-17.155 20.461-30.576 23.123-11.438 2.2691-25.437-2.0516-34.69-10.706-5.5289-5.1716-12.033-16.83-12.033-21.569v-2.8656h-49v13.947l29.162 0.55347-6.5e-4 10.5-6.6e-4 10.5-24.897 0.26679c-13.693 0.14673-25.205-0.0408-25.58-0.41667zm115.87-22.303c4.41-3.3296 12.444-11.817 12.448-13.151 6.8e-4 -0.21836-7.8743-0.26445-17.5-0.10242-9.6257 0.16202-17.501 0.52955-17.501 0.81672 0 2.1614 14.675 16.385 16.909 16.388 0.22502 3.5e-4 2.7648-1.778 5.644-3.9518zm13.84-16.629c1.1007-2.8684 0.63232-10.469-0.81801-13.273-2.9034-5.6146-11.011-6.8764-15.389-2.395l-2.6862 2.75-2.6731-2.75c-6.5325-6.7205-17.827 0.00704-17.827 10.619 0 6.8802-0.75032 6.6314 20 6.6314 16.208 0 18.869-0.21708 19.393-1.5818zm63.656 21.627-8.3591-18.045h-16.345c-10.726 0-16.345-0.36015-16.345-1.0478 0-0.69908 5.3249-0.94866 16.001-0.75 8.8008 0.16376 16.001 0.2539 16 0.20031-7.6e-4 -0.0536-4.7264-10.113-10.501-22.355s-10.5-22.451-10.5-22.686c0-0.23569 4.8089-0.30081 10.686-0.1447l10.686 0.28383 10.445 22.668c6.0446 13.118 10.917 22.487 11.565 22.239 0.61569-0.23626 5.7861-10.549 11.49-22.918l10.37-22.489h10.379c5.7082 0 10.379 0.18257 10.379 0.40571 0 0.22315-4.5 10.121-10 21.996s-10 21.817-10 22.094 8.325 0.50443 18.5 0.50443c11.667 0 18.5 0.36937 18.5 1 0 0.63204-7.0848 1-19.255 1h-19.255l-16.415 35.5-9.6684 0.59038zm73.951-23.045v-41h51v17h-30v14h26v13h69v-44h21v44h31.153l-2.9988-2.5233c-6.6684-5.6111-9.3599-17.368-5.871-25.645 2.2483-5.3339 9.0249-11.429 15.33-13.788 6.0491-2.2633 17.315-2.7466 23.564-1.011 8.9154 2.4762 17.735 11.536 19.193 19.717l0.57943 3.25h-11.408c-10.217 0-11.469-0.19288-11.994-1.8482-0.63199-1.9912-4.5143-4.1518-7.4604-4.1518-2.8608 0-7.0878 3.8765-7.0878 6.5 0 3.5992 4.0597 6.1168 11.04 6.8464 15.68 1.6389 26.3 11.796 26.3 25.154 0 10.294-4.9521 17.077-16.34 22.382-4.4368 2.0667-7.0505 2.5674-13.521 2.5902-7.0825 0.0249-8.8042-0.35738-14.714-3.267-3.8379-1.8894-8.0007-4.8757-9.7577-7-3.0575-3.6966-6.4574-12.667-5.4306-14.328 0.29797-0.48212 5.4652-0.87659 11.483-0.87659 8.4983 0 10.941 0.30028 10.941 1.345 0 1.992 3.2241 4.5498 6.5814 5.2213 2.143 0.42861 3.6982 2e-3 5.6844-1.5607 5.3376-4.1986 2.193-11.006-5.0843-11.006-3.7697 0-14.025-2.5612-15.379-3.8408-0.38359-0.36257-8.3711-0.52619-17.75-0.36362l-17.053 0.2956v35.909h-21v-36h-34.5c-30 0-34.5 0.19565-34.5 1.5 0 1.2564-2.1111 1.5-13 1.5h-13v15h30v18h-51zm296.96 23.039-8.3315-18.039h-36.257c-23.667 0-36.477-0.35569-36.89-1.0243-0.42884-0.69388 11.166-0.93584 35.941-0.75 20.116 0.15089 36.574 0.24616 36.574 0.21172-2.3e-4 -0.0344-4.241-9.1342-9.424-20.222-5.183-11.087-9.7133-21.072-10.067-22.187-0.62111-1.9569-0.24184-2.0283 10.777-2.0283h11.42l10.289 22.25c9.7361 21.054 10.436 22.25 13.019 22.25 2.5389 0 3.1777-0.98021 9.1244-14l6.3943-14h9.7401l6.412 14.07c6.2588 13.734 6.48 14.06 9.2606 13.652 2.642-0.38777 3.5789-1.9884 12.917-22.07l10.068-21.652 11.535-0.28174c6.3441-0.15495 11.535-0.06 11.535 0.21099 0 0.271-4.5 10.247-10 22.17s-10.001 21.727-10.002 21.789c-8.2e-4 0.0616 6.6489-0.022 14.777-0.18576l14.779-0.29776 20.07-43.404h10.666l20.747 44 32.962-0.59329v-43.907l21.25 0.01c20.235 9e-3 21.489 0.12244 26.25 2.3678 6.1216 2.887 11.719 8.4038 14.733 14.523 2.8838 5.8527 3.2296 19.806 0.60957 24.6l-1.6397 3 15.14-0.30266c13.822-0.27631 15.336-0.48727 17.398-2.4243 1.2421-1.1669 2.2584-2.7182 2.2584-3.4473 0-2.2043 1.3862-1.43 3.5142 1.9628 1.7232 2.7475 2.675 3.2546 6.5885 3.5097l4.5744 0.29819 1.7102-6.3181c0.9406-3.4749 2.0866-6.9271 2.5466-7.6714 0.5359-0.86705 2.2119 4.3323 4.6641 14.469l3.8276 15.822 3.2814-16.449c5.0965-25.547 5.443-27.132 5.8425-26.733 0.2062 0.20616 1.9892 11.589 3.9622 25.296 1.9731 13.706 3.6948 25.028 3.8261 25.159s1.7686-6.266 3.6385-14.216 3.7115-14.455 4.0925-14.455 1.7467 4.0398 3.0349 8.9773c2.4788 9.501 2.871 9.6016 4.9586 1.2727l1.3158-5.25h8.8109c4.8461 0 8.8093-0.3375 8.8073-0.75 0-0.4125-0.9263-2.2632-2.0539-4.1128s-1.8631-3.5499-1.6344-3.7786c0.2287-0.22868 4.8455 1.492 10.26 3.8237l9.8438 4.2395-7.9557 3.651c-4.3756 2.008-9.0371 3.9903-10.359 4.4051l-2.4032 0.75412 4.4696-7.2321h-16.836l-1.8272 8c-1.0049 4.4-2.1499 8-2.5444 8-0.3944 0-1.7711-4.0398-3.0593-8.9773-1.2882-4.9375-2.6329-8.425-2.9882-7.75-0.3553 0.67501-2.1506 7.4148-3.9896 14.977-1.8389 7.5625-3.6071 13.75-3.9292 13.75-0.3222 0-2.1074-11.019-3.9672-24.487-1.8598-13.468-3.527-24.341-3.7049-24.163-0.178 0.17795-2.1207 9.2457-4.3172 20.15s-4.17 20.003-4.3856 20.219c-0.2156 0.21559-2.1917-6.9455-4.3913-15.913l-3.9992-16.305-1.9154 6.5c-1.9078 6.4741-1.932 6.5022-6.076 7.0624-4.3814 0.5923-7.7827 2.9451-8.7744 6.0694-0.69331 2.1844-2.4581 2.5126-2.4581 0.45701 0-0.7761-1.3845-2.5761-3.0767-4-3.0078-2.5312-3.4093-2.5891-17.932-2.5891h-14.855l-2.0681 2.9044c-1.1374 1.5974-2.0681 3.2056-2.0681 3.5737 0 0.36813 3.3791 6.46 7.5091 13.538 4.13 7.0775 7.7781 13.569 8.107 14.426 0.5209 1.3574-0.94626 1.5581-11.391 1.5581h-11.989l-12.654-22h-14.583v22h-21v-36h-16c-8.8 0-16 0.18356-16 0.40792 0 0.22435 3.3378 7.4026 7.4172 15.952 10.458 21.916 10.648 19.64-1.6415 19.64h-10.359l-2.6975-5.5-2.6974-5.5h-34.132l-5.036 11h-10.427c-5.7347 0-10.427-0.16999-10.427-0.37776s3.6-8.11 8-17.561 8-17.393 8-17.649-6.5357-0.34169-14.524-0.18948l-14.524 0.27673-16.352 35.5h-15.182l-14.119-29.5-6.1373 13c-3.3755 7.15-6.5277 13.675-7.0049 14.5-0.62265 1.0764-2.9847 1.5817-8.3653 1.7894l-7.4976 0.28942zm146.34-14.539c-1.6168-3.3906-1.8459-3.5-7.3233-3.5-5.0887 0-5.7704 0.25479-6.8148 2.547-0.63829 1.4009-1.1605 2.9759-1.1605 3.5 0 0.52905 3.7739 0.95295 8.4838 0.95295h8.4838zm-127.94-2c0.38957-1.0152-0.05049-1.5-1.3616-1.5s-1.7512 0.48478-1.3616 1.5c0.31659 0.825 0.92932 1.5 1.3616 1.5s1.045-0.675 1.3616-1.5zm41 0c0.39152-1.0203-0.054-1.5-1.393-1.5-1.965 0-2.5632 1.072-1.302 2.3333 1.08 1.08 2.0793 0.77096 2.695-0.83333zm82.485-7.8791c-1.2348-2.5415-2.5149-4.6209-2.8449-4.6209-0.32991 0-1.2505 1.6875-2.0457 3.75-0.79525 2.0625-1.5891 4.0602-1.764 4.4394-0.2581 0.55933 7.5673 1.6339 8.6039 1.1815 0.16266-0.071-0.71451-2.2085-1.9493-4.75zm94.339 1.3442c7.6912-2.1362 11.218-11.088 7.1082-18.045-2.6492-4.4847-7.046-6.0512-16.034-5.7127l-7.7598 0.29224-0.28572 10.936c-0.15714 6.0147-0.0588 11.527 0.21862 12.25 0.61814 1.6108 11.317 1.7893 16.753 0.27944zm-649.22-68.334c-0.25442-0.25339-0.33303-10.174-0.17469-22.046l0.28788-21.585h6.0529l-0.31434 10.502c-0.17289 5.7762-0.0813 10.501 0.20353 10.5 0.28482-0.00116 5.2268-4.7271 10.982-10.502 10.201-10.235 10.578-10.5 14.976-10.5h4.5115l-19.479 19.479 24.462 24.521h-4.4679c-4.3256 0-4.7896-0.32056-14.563-10.061l-10.095-10.061-3.7404 4.1402c-3.5033 3.8777-3.7234 4.4997-3.4724 9.8111 0.25425 5.379 0.14004 5.6862-2.2186 5.9668-1.3676 0.16275-2.6948 0.0886-2.9492-0.16481zm90.35-0.41676c-0.65309-0.41528-1.6544-1.9834-2.2252-3.4847l-1.0378-2.7296h-24.154l-1.0458 3c-0.92158 2.6436-1.5104 3-4.9565 3-3.4491 0-3.7894-0.20655-2.8835-1.75 0.56496-0.9625 5.2384-10.75 10.385-21.75 5.147-11 9.9218-20 10.61-20 1.2056 0 20.947 40.699 20.978 43.25 0.0169 1.3644-3.769 1.6743-5.6719 0.46434zm-7.78-15.464c-0.75098-1.7875-2.7206-6.1081-4.3769-9.6014l-3.0115-6.3514-2.0344 3.9878c-1.1189 2.1933-3.1516 6.5139-4.517 9.6014l-2.4826 5.6136h17.788zm91.59 15.156c-4.8105-1.0046-8.2808-3.8536-10.873-8.9263-2.0432-3.9986-2.25-5.8085-2.25-19.691v-15.288h8v15.277c0 16.795 0.47131 18.432 5.9602 20.706 2.4436 1.0122 3.636 1.0122 6.0797 0 5.4921-2.2749 5.9602-3.9058 5.9602-20.766v-15.338l7.5 0.62073 0.27206 15c0.25255 13.924 0.10909 15.319-2 19.441-1.2496 2.4428-3.4609 5.3068-4.9139 6.3645-3.2861 2.392-9.2895 3.5284-13.735 2.5999zm49.591 0.47488c-0.39273-0.39274-0.71793-4.3516-0.72267-8.7974l-9e-3 -8.0833-7.491-13c-4.1201-7.15-7.4912-13.338-7.4914-13.75s1.776-0.75 3.9471-0.75c3.946 0 3.9494 4e-3 9.25 9.4782 2.9164 5.213 5.5275 9.4846 5.8025 9.4924 0.275 8e-3 2.9612-4.2573 5.9693-9.4782l5.4693-9.4924h4.3158c5.0464 0 5.5715-1.7514-4.8651 16.228-6.7523 11.633-6.8102 11.796-7.0986 20l-0.29039 8.2718-3.0359 0.29739c-1.6698 0.16357-3.3573-0.0239-3.75-0.41666zm61.153-2.8807-2.065-3.5h-23.56l-1.2426 3c-1.034 2.4962-1.81 3-4.6213 3-1.8583 0-3.3787-0.22435-3.3787-0.49854 0-2.0202 20.543-43.488 21.403-43.203 0.9463 0.31335 21.309 41.901 21.52 43.952 0.0425 0.4125-1.2879 0.75-2.9564 0.75-2.4071 0-3.4603-0.72293-5.0988-3.5zm-4.8675-9.8698c0-0.20341-1.9781-4.5909-4.3959-9.75l-4.3959-9.3802-2.6418 5.8636c-1.453 3.225-3.534 7.6125-4.6245 9.75l-1.9827 3.8864h9.0203c4.9612 0 9.0203-0.16643 9.0203-0.36984zm87.014 12.346c-3.9324-0.92456-9.0144-5.9937-9.0144-8.9915 0-3.143 5.342-2.7237 6.8272 0.53586 3.2152 7.0565 16.173 4.4286 16.173-3.28 0-2.9227-4.0043-6.0084-9.3525-7.207-9.8198-2.2007-13.648-5.7158-13.648-12.533 0-7.2543 5.3928-11.72 14.072-11.653 6.2754 0.0486 10.728 2.4292 12.507 6.687 1.8944 4.534 1.9262 4.4657-2.0788 4.4657-2.2652 0-3.5-0.47452-3.5-1.345 0-4.4435-10.064-6.4518-13.47-2.6881-2.0576 2.2736-2.3266 6.3684-0.55829 8.499 0.67194 0.80964 4.9836 2.6195 9.5815 4.022 9.6754 2.9512 11.447 4.7552 11.447 11.658 0 5.7949-3.3638 10.306-8.8143 11.819-4.1749 1.1595-5.2797 1.1607-10.171 0.0106zm65.298 0.23859c-0.65309-0.41528-1.6544-1.9834-2.2252-3.4847l-1.0378-2.7296h-24.223l-1.1324 3c-0.98738 2.6159-1.624 3-4.9722 3-2.8244 0-3.6319-0.33054-3.0536-1.25 0.43237-0.6875 5.107-10.475 10.388-21.75 5.2811-11.275 10.175-20.5 10.875-20.5 1.2077 0 20.959 40.613 21.033 43.25 0.0386 1.364-3.7479 1.6751-5.652 0.46434zm-9.9309-19.964c-1.9623-4.2625-3.7991-8.3125-4.0817-9-1.1615-2.8252-2.1372-1.4088-7.922 11.5l-2.3527 5.25h17.924zm66.332 20.131c-0.39273-0.39274-0.71406-6.9755-0.71406-14.628v-13.914l-15.379 14.032-5.6672-4.9096c-3.117-2.7002-6.2368-5.596-6.9331-6.4349-0.69627-0.83896-1.6608-1.5254-2.1435-1.5254-0.48266 0-0.87756 6.075-0.87756 13.5v13.5h-8v-22c0-12.419 0.39312-22 0.90271-22 0.49648 0 5.559 4.2591 11.25 9.4647 5.691 5.2056 10.797 9.4722 11.347 9.4814 0.55 9e-3 5.6567-4.2499 11.348-9.4647 5.6916-5.2148 10.763-9.4814 11.269-9.4814 0.54162 0 0.81003 9.1633 0.65173 22.25l-0.26913 22.25-3.0359 0.29739c-1.6698 0.16357-3.3573-0.0239-3.75-0.41666zm54.598-0.16639c-0.65309-0.41528-1.6544-1.9834-2.2252-3.4847l-1.0378-2.7296h-24.154l-1.0458 3c-0.9143 2.6227-1.5231 3-4.8415 3h-3.7957l10.258-21.75c5.6418-11.962 10.811-21.75 11.487-21.75 1.1952 0 21.011 40.75 21.032 43.25 0.0112 1.3645-3.7746 1.6741-5.6772 0.46434zm-7.78-15.464c-0.75098-1.7875-2.722-6.1111-4.3801-9.608l-3.0146-6.358-2.954 5.858c-1.6247 3.2219-3.6577 7.5455-4.5179 9.608l-1.5639 3.75h17.796zm-420.39 13.091c-14.109-6.9835-15.428-28.711-2.2686-37.359 7.1065-4.6704 17.511-5.0557 23.905-0.88517l2.2777 1.4858-2.8688 2.414c-2.5575 2.152-3.2534 2.2959-6.4135 1.326-5.1411-1.5778-10.569-0.22687-14.373 3.5776-10.013 10.013-0.93214 26.798 13.077 24.17 3.431-0.64366 9.5229-4.9036 9.5229-6.6592 0-0.50111-2.25-0.91111-5-0.91111-4.8889 0-5-0.0667-5-3v-3h19.263l-0.55876 4.1658c-0.74529 5.5566-5.2044 11.653-10.612 14.507-5.9093 3.1198-14.843 3.1914-20.951 0.16794zm193.86-16.841v-3h23v6h-23z" fill="#a41518"/>
  <path d="m135.68 326.35c-0.3759-0.3759-0.68345-18.833-0.68345-41.017v-40.333h22v59.947l29.162 0.55347-6.5e-4 10.5-6.6e-4 10.5-24.897 0.26679c-13.693 0.14673-25.205-0.0408-25.58-0.41667zm102.32-0.44807c-12.332-2.4084-23.565-11.49-29.286-23.679-2.8587-6.0898-3.1534-7.6185-3.1278-16.223 0.0222-7.4641 0.51377-10.733 2.2937-15.252 4.4121-11.202 13.488-19.92 24.924-23.939 4.4814-1.5751 7.6023-1.913 15.195-1.6454 8.3958 0.2959 10.362 0.73406 16.2 3.6109 7.8944 3.89 15.351 11.546 19.457 19.978 2.5419 5.2196 2.8011 6.7598 2.8215 16.765 0.0212 10.401-0.15675 11.38-3.1782 17.5-8.4863 17.188-26.882 26.481-45.299 22.885zm13.553-21.854c5.6402-4.2584 11.332-10.849 13.252-15.345 1.534-3.5915 1.534-10.864 3e-5 -14.231-2.6279-5.7676-11.218-7.2634-15.632-2.7221l-2.6731 2.75-2.6862-2.75c-6.5803-6.7365-17.814 0.01345-17.814 10.704 0 6.1841 5.495 14.55 13.881 21.133 3.0906 2.4262 5.8034 4.4116 6.0284 4.412 0.22502 3.5e-4 2.7648-1.778 5.644-3.9518zm66.926-17.637c-10.438-22.373-19.134-41.084-19.324-41.579-0.19556-0.51073 4.324-0.77753 10.436-0.61606l10.781 0.28479 10.494 22.773c5.7716 12.525 10.924 22.63 11.451 22.454s5.6782-10.536 11.448-23.023l10.491-22.704h10.372c5.7044 0 10.372 0.18257 10.372 0.40571 0 0.39493-17.099 37.579-23.266 50.594-1.6939 3.575-5.6904 12.125-8.8811 19l-5.8013 12.5-9.5941 0.58866zm84.521-0.4104v-41h51v17h-30v14h25.836l0.3514 7.25c0.559 11.533 1.5282 10.75-13.304 10.75h-12.883v15h30v18h-51zm115.77 23.25c-0.14991-9.7625-0.14392-28.212 0.0133-41l0.28586-23.25h20.855l0.28651 22.25c0.15758 12.238 0.15479 30.688-6e-3 41l-0.2927 18.75h-20.869l-0.27256-17.75zm63.157 16.445c-6.4068-1.8143-13.395-6.1277-16.48-10.172-2.7577-3.6156-5.8056-12.138-4.8777-13.639 0.30039-0.48605 5.4696-0.88373 11.487-0.88373 8.4983 0 10.941 0.30028 10.941 1.345 0 1.992 3.2241 4.5498 6.5814 5.2213 2.143 0.42861 3.6982 2e-3 5.6844-1.5607 5.306-4.1737 2.1964-11-5.0158-11.011-11.497-0.0171-22.946-6.604-27.372-15.747-8.113-16.759 5.8948-34.258 27.41-34.241 3.9669 3e-3 8.8673 0.46518 10.89 1.0269 8.9154 2.4762 17.735 11.536 19.193 19.717l0.57943 3.25h-11.408c-10.217 0-11.469-0.19288-11.994-1.8482-0.63199-1.9912-4.5143-4.1518-7.4604-4.1518-2.8608 0-7.0878 3.8765-7.0878 6.5 0 3.5992 4.0597 6.1168 11.04 6.8464 15.68 1.6389 26.3 11.796 26.3 25.154 0 10.194-5.0042 17.137-15.992 22.188-6.3173 2.9044-16.142 3.7836-22.419 2.0063zm107.72-38.987c-10.258-22.204-18.651-40.672-18.651-41.039 0-0.36737 5.1074-0.66795 11.35-0.66795h11.35l11.341 24.5c6.2376 13.475 11.626 24.5 11.974 24.5s3.9857-7.3125 8.0835-16.25l7.4506-16.25h9.7096l7.3101 15.98c6.6192 14.47 9.2012 18.685 9.5568 15.604 0.20955-1.8161 0.39187-2.2413 5.6095-13.083 2.7792-5.775 7.5616-15.9 10.628-22.5l5.5746-12 11.532-0.28174c6.3424-0.15495 11.532-0.068 11.532 0.19315 0 0.42001-11.48 25.583-21.938 48.089-2.0448 4.4-6.3619 13.738-9.5936 20.75l-5.8758 12.75h-15.174l-14.119-29.5-6.1373 13c-3.3755 7.15-6.5277 13.675-7.0049 14.5-0.62258 1.0763-2.9842 1.5817-8.3615 1.7894l-7.4938 0.28934zm106.35 39.915c0-0.38999 12.377-27.122 21.123-45.622 2.7302-5.775 7.5625-16.125 10.739-23l5.7746-12.5h10.671l18.839 40c10.361 22 18.842 40.338 18.846 40.75 4e-3 0.4125-4.6238 0.75-10.284 0.75h-10.292l-2.6975-5.5-2.6974-5.5h-34.132l-5.036 11h-10.427c-5.7347 0-10.427-0.16999-10.427-0.37776zm47.784-37.622c-3.6819-8.0833-5.7844-10.962-5.7844-7.919 0 0.59456-1.575 4.2193-3.5 8.055-1.925 3.8357-3.5 7.3992-3.5 7.919 0 0.51974 3.7989 0.94499 8.4419 0.94499h8.4419zm54.216-3v-41l21.25 0.01c20.235 9e-3 21.489 0.12244 26.25 2.3678 9.9703 4.7021 16.359 13.948 17.232 24.937 0.61827 7.7858-0.81307 13.126-5.2455 19.569-1.9175 2.7875-3.4863 5.3372-3.4863 5.666 0 0.32878 3.3791 6.3885 7.5091 13.466 4.13 7.0775 7.7781 13.569 8.107 14.426 0.5209 1.3574-0.94626 1.5581-11.391 1.5581h-11.989l-12.654-22h-14.583v22h-21v-41zm38.186-0.0348c7.6912-2.1362 11.218-11.088 7.1082-18.045-2.6492-4.4847-7.046-6.0512-16.034-5.7127l-7.7598 0.29221-0.28572 10.936c-0.15714 6.0147-0.0588 11.527 0.21862 12.25 0.61814 1.6108 11.317 1.7893 16.753 0.27944zm101.31 28.035c-0.3797-1.7287-0.4819-3.3515-0.2271-3.6062s0.7507 0.97429 1.1021 2.7312c0.8337 4.1682 0.026 4.9761-0.875 0.875zm1.5789-2.5833c0.048-1.165 0.285-1.4019 0.6042-0.60417 0.2889 0.72187 0.2534 1.5844-0.079 1.9167-0.3323 0.33229-0.5687-0.25834-0.5253-1.3125zm-18.508-4.9881c-0.3678-1.4655-0.4759-2.8574-0.2402-3.0931 0.2358-0.23571 0.7296 0.77049 1.0974 2.236s0.4759 2.8574 0.2402 3.0931c-0.2358 0.23571-0.7296-0.77049-1.0974-2.236zm19.508 0.9881c0.048-1.165 0.285-1.4019 0.6042-0.60417 0.2889 0.72187 0.2534 1.5844-0.079 1.9167-0.3323 0.33229-0.5687-0.25834-0.5253-1.3125zm-3.921-1.4167c0-1.375 0.227-1.9375 0.5044-1.25s0.2774 1.8125 0 2.5-0.5044 0.125-0.5044-1.25zm14.857-1.191c-0.01-0.93004 0.4347-1.9691 0.9847-2.309 1.2656-0.78218 1.2656 0.54163 0 2.5-0.8354 1.2927-0.9715 1.2663-0.9847-0.19098zm-982.29-2.8894c-1.8445-4.3673-6.2556-8.7779-10.724-10.723-3.242-1.4114-3.3336-1.5669-1.2429-2.11 3.6747-0.95449 9.0949-5.8759 11.359-10.314l2.1111-4.1381 1.4403 3.4255c1.9685 4.6816 5.0851 7.8635 9.8061 10.012l3.9735 1.8079-2.9735 1.1238c-4.1414 1.5653-8.4003 5.784-10.515 10.416l-1.7896 3.9196zm953.35 1.497c0.048-1.165 0.285-1.4019 0.6042-0.60417 0.2889 0.72187 0.2534 1.5844-0.079 1.9167-0.3323 0.33229-0.5687-0.25834-0.5253-1.3125zm19-1c0.048-1.165 0.285-1.4019 0.6042-0.60417 0.2889 0.72187 0.2534 1.5844-0.079 1.9167-0.3323 0.33229-0.5687-0.25834-0.5253-1.3125zm-22-2c0.048-1.165 0.285-1.4019 0.6042-0.60417 0.2889 0.72187 0.2534 1.5844-0.079 1.9167-0.3323 0.33229-0.5687-0.25834-0.5253-1.3125zm16.116-0.91667c0.02-1.65 0.2445-2.2039 0.4981-1.231 0.2535 0.97297 0.2369 2.323-0.037 3s-0.4813-0.11903-0.461-1.769zm14.884 0.91667c0.048-1.165 0.285-1.4019 0.6042-0.60417 0.2889 0.72187 0.2534 1.5844-0.079 1.9167-0.3323 0.33229-0.5687-0.25834-0.5253-1.3125zm3-1c0.048-1.165 0.285-1.4019 0.6042-0.60417 0.2889 0.72187 0.2534 1.5844-0.079 1.9167-0.3323 0.33229-0.5687-0.25834-0.5253-1.3125zm-30-1c0.048-1.165 0.285-1.4019 0.6042-0.60417 0.2889 0.72187 0.2534 1.5844-0.079 1.9167-0.3323 0.33229-0.5687-0.25834-0.5253-1.3125zm19 0c0.048-1.165 0.285-1.4019 0.6042-0.60417 0.2889 0.72187 0.2534 1.5844-0.079 1.9167-0.3323 0.33229-0.5687-0.25834-0.5253-1.3125zm-943.08-1.2803c0-1.5326-5.0871-6.0044-7.3269-6.4407-2.1444-0.41769-2.1451-0.4251-0.05948-0.55948 2.1017-0.13541 7.3864-4.6232 7.3864-6.2725 0-1.7245 1.8822-0.81031 2.5292 1.2285 0.36521 1.1507 2.533 2.9408 4.8174 3.978 2.8384 1.2888 3.4872 1.8928 2.0494 1.9078-2.2249 0.0232-7.396 4.2002-7.396 5.9742 0 0.57626-0.45 1.0478-1 1.0478s-1-0.38864-1-0.86364zm893.82-2.0949c-1.0196-1.7921-2.978-3.321-5-3.9035-2.59-0.74612-2.8171-0.97747-1.0285-1.0477 2.3379-0.0919 6.4943-3.5347 7.4211-6.147 0.38067-1.0729 1.1024-0.70744 2.8129 1.4246 1.2655 1.5772 3.689 3.4721 5.3857 4.2109 2.0474 0.89145 2.4627 1.3563 1.2348 1.3823-1.0175 0.0215-3.425 1.6141-5.35 3.5391s-3.5675 3.4972-3.65 3.4937c-0.0825-3e-3 -0.90424-1.332-1.8261-2.9523zm25.255 1.3752c0.048-1.165 0.285-1.4019 0.6042-0.60417 0.2889 0.72187 0.2534 1.5844-0.079 1.9167-0.3323 0.33229-0.5687-0.25834-0.5253-1.3125zm36-1c0.048-1.165 0.285-1.4019 0.6042-0.60417 0.2889 0.72187 0.2534 1.5844-0.079 1.9167-0.3323 0.33229-0.5687-0.25834-0.5253-1.3125zm16.932-1.6667c2.5102-4.1171 2.4923-5.7827-0.1098-10.193-1.1543-1.9564-1.92-3.5572-1.7014-3.5572 1.2908 0 17.377 7.6549 17.623 8.3863 0.2314 0.68765-15.803 8.6137-17.426 8.6137-0.2025 0 0.5235-1.4625 1.6134-3.25zm-46.853 0.25c0-1.375 0.227-1.9375 0.5044-1.25s0.2774 1.8125 0 2.5-0.5044 0.125-0.5044-1.25zm23.921-0.58333c0.048-1.165 0.285-1.4019 0.6042-0.60417 0.2889 0.72187 0.2534 1.5844-0.079 1.9167-0.3323 0.33229-0.5687-0.25834-0.5253-1.3125zm-13.884-1.9167c0.02-1.65 0.2445-2.2039 0.4981-1.231 0.2535 0.97297 0.2369 2.323-0.037 3s-0.4813-0.11903-0.461-1.769zm20.805 0.059c0-0.79254 0.408-1.6932 0.9067-2.0014s0.6713 0.34022 0.3834 1.441c-0.6106 2.335-1.2901 2.6302-1.2901 0.5604zm-7.9211-2.1424c0.048-1.165 0.285-1.4019 0.6042-0.60417 0.2889 0.72187 0.2534 1.5844-0.079 1.9167-0.3323 0.33229-0.5687-0.25834-0.5253-1.3125zm-37.958-2.4395c1.5139-4.4777 2.3663-5.3469 1.4486-1.4772-0.3913 1.65-1.1418 3.4397-1.6678 3.9772-0.5261 0.53745-0.4274-0.58755 0.2192-2.5zm15.958 1.4395c0.048-1.165 0.285-1.4019 0.6042-0.60417 0.2889 0.72187 0.2534 1.5844-0.079 1.9167-0.3323 0.33229-0.5687-0.25834-0.5253-1.3125zm8.079-3.4166c0-1.375 0.227-1.9375 0.5044-1.25s0.2774 1.8125 0 2.5-0.5044 0.125-0.5044-1.25zm11.842 1.059c0-0.51754 0.45-1.2191 1-1.559s1 0.0835 1 0.94098c0 0.85746-0.45 1.559-1 1.559s-1-0.42344-1-0.94098zm-18.921-2.6424c0.048-1.165 0.285-1.4019 0.6042-0.60417 0.2889 0.72187 0.2534 1.5844-0.079 1.9167-0.3323 0.33229-0.5687-0.25834-0.5253-1.3125zm-12-4c0.048-1.165 0.285-1.4019 0.6042-0.60417 0.2889 0.72187 0.2534 1.5844-0.079 1.9167-0.3323 0.33229-0.5687-0.25834-0.5253-1.3125zm18.116-0.91667c0.02-1.65 0.2445-2.2039 0.4981-1.231 0.2535 0.97297 0.2369 2.323-0.037 3s-0.4813-0.11903-0.461-1.769zm-5.116-0.0833c0.048-1.165 0.285-1.4019 0.6042-0.60417 0.2889 0.72187 0.2534 1.5844-0.079 1.9167-0.3323 0.33229-0.5687-0.25834-0.5253-1.3125zm-15.048 0.0833c0-0.55 0.4362-1.675 0.9694-2.5s0.9694-1.05 0.9694-0.5-0.4362 1.675-0.9694 2.5-0.9694 1.05-0.9694 0.5zm16.127-5.5c0-1.375 0.227-1.9375 0.5044-1.25s0.2774 1.8125 0 2.5-0.5044 0.125-0.5044-1.25zm3.037-2.5c0.02-1.65 0.2445-2.2039 0.4981-1.231 0.2535 0.97297 0.2369 2.323-0.037 3s-0.4813-0.11903-0.461-1.769zm-2.0249-1.5c0.016-0.825 0.3896-2.625 0.83-4 0.6436-2.0097 0.8064-2.1078 0.83-0.5 0.016 1.1-0.3573 2.9-0.83 4-0.5265 1.2253-0.848 1.419-0.83 0.5zm-742.21-51.369c-0.25442-0.25339-0.33303-10.174-0.17469-22.046l0.28788-21.585h6.0529l-0.31434 10.502c-0.17289 5.7762-0.0813 10.501 0.20353 10.5 0.28482-0.00116 5.2268-4.7271 10.982-10.502 10.201-10.235 10.578-10.5 14.976-10.5h4.5115l-19.479 19.479 24.462 24.521h-4.4679c-4.3256 0-4.7896-0.32056-14.563-10.061l-10.095-10.061-3.7404 4.1402c-3.5033 3.8777-3.7234 4.4997-3.4724 9.8111 0.25425 5.379 0.14004 5.6862-2.2186 5.9668-1.3676 0.16275-2.6948 0.0886-2.9492-0.16481zm90.35-0.41676c-0.65309-0.41528-1.6544-1.9834-2.2252-3.4847l-1.0378-2.7296h-24.154l-1.0458 3c-0.92158 2.6436-1.5104 3-4.9565 3-3.4491 0-3.7894-0.20655-2.8835-1.75 0.56496-0.9625 5.2384-10.75 10.385-21.75 5.147-11 9.9218-20 10.61-20 1.2056 0 20.947 40.699 20.978 43.25 0.0169 1.3644-3.769 1.6743-5.6719 0.46434zm-7.78-15.464c-0.75098-1.7875-2.7206-6.1081-4.3769-9.6014l-3.0115-6.3514-2.0344 3.9878c-1.1189 2.1933-3.1516 6.5139-4.517 9.6014l-2.4826 5.6136h17.788zm91.59 15.156c-4.8105-1.0046-8.2808-3.8536-10.873-8.9263-2.0432-3.9986-2.25-5.8085-2.25-19.691v-15.288h8v15.277c0 16.795 0.47131 18.432 5.9602 20.706 2.4436 1.0122 3.636 1.0122 6.0797 0 5.4921-2.2749 5.9602-3.9058 5.9602-20.766v-15.338l7.5 0.62073 0.27206 15c0.25255 13.924 0.10909 15.319-2 19.441-1.2496 2.4428-3.4609 5.3068-4.9139 6.3645-3.2861 2.392-9.2895 3.5284-13.735 2.5999zm49.591 0.47488c-0.39273-0.39274-0.71793-4.3516-0.72267-8.7974l-9e-3 -8.0833-7.491-13c-4.1201-7.15-7.4912-13.338-7.4914-13.75s1.776-0.75 3.9471-0.75c3.946 0 3.9494 4e-3 9.25 9.4782 2.9164 5.213 5.5275 9.4846 5.8025 9.4924 0.275 8e-3 2.9612-4.2573 5.9693-9.4782l5.4693-9.4924h4.3158c5.0464 0 5.5715-1.7514-4.8651 16.228-6.7523 11.633-6.8102 11.796-7.0986 20l-0.29039 8.2718-3.0359 0.29739c-1.6698 0.16357-3.3573-0.0239-3.75-0.41666zm61.153-2.8807-2.065-3.5h-23.56l-1.2426 3c-1.034 2.4962-1.81 3-4.6213 3-1.8583 0-3.3787-0.22435-3.3787-0.49854 0-2.0202 20.543-43.488 21.403-43.203 0.9463 0.31335 21.309 41.901 21.52 43.952 0.0425 0.4125-1.2879 0.75-2.9564 0.75-2.4071 0-3.4603-0.72293-5.0988-3.5zm-4.8675-9.8698c0-0.20341-1.9781-4.5909-4.3959-9.75l-4.3959-9.3802-2.6418 5.8636c-1.453 3.225-3.534 7.6125-4.6245 9.75l-1.9827 3.8864h9.0203c4.9612 0 9.0203-0.16643 9.0203-0.36984zm87.014 12.346c-3.9324-0.92456-9.0144-5.9937-9.0144-8.9915 0-3.143 5.342-2.7237 6.8272 0.53586 3.2152 7.0565 16.173 4.4286 16.173-3.28 0-2.9227-4.0043-6.0084-9.3525-7.207-9.8198-2.2007-13.648-5.7158-13.648-12.533 0-7.2543 5.3928-11.72 14.072-11.653 6.2754 0.0486 10.728 2.4292 12.507 6.687 1.8944 4.534 1.9262 4.4657-2.0788 4.4657-2.2652 0-3.5-0.47452-3.5-1.345 0-4.4435-10.064-6.4518-13.47-2.6881-2.0576 2.2736-2.3266 6.3684-0.55829 8.499 0.67194 0.80964 4.9836 2.6195 9.5815 4.022 9.6754 2.9512 11.447 4.7552 11.447 11.658 0 5.7949-3.3638 10.306-8.8143 11.819-4.1749 1.1595-5.2797 1.1607-10.171 0.0106zm65.298 0.23859c-0.65309-0.41528-1.6544-1.9834-2.2252-3.4847l-1.0378-2.7296h-24.223l-1.1324 3c-0.98738 2.6159-1.624 3-4.9722 3-2.8244 0-3.6319-0.33054-3.0536-1.25 0.43237-0.6875 5.107-10.475 10.388-21.75 5.2811-11.275 10.175-20.5 10.875-20.5 1.2077 0 20.959 40.613 21.033 43.25 0.0386 1.364-3.7479 1.6751-5.652 0.46434zm-9.9309-19.964c-1.9623-4.2625-3.7991-8.3125-4.0817-9-1.1615-2.8252-2.1372-1.4088-7.922 11.5l-2.3527 5.25h17.924zm66.332 20.131c-0.39273-0.39274-0.71406-6.9755-0.71406-14.628v-13.914l-15.379 14.032-5.6672-4.9096c-3.117-2.7002-6.2368-5.596-6.9331-6.4349-0.69627-0.83896-1.6608-1.5254-2.1435-1.5254-0.48266 0-0.87756 6.075-0.87756 13.5v13.5h-8v-22c0-12.419 0.39312-22 0.90271-22 0.49648 0 5.559 4.2591 11.25 9.4647 5.691 5.2056 10.797 9.4722 11.347 9.4814 0.55 9e-3 5.6567-4.2499 11.348-9.4647 5.6916-5.2148 10.763-9.4814 11.269-9.4814 0.54162 0 0.81003 9.1633 0.65173 22.25l-0.26913 22.25-3.0359 0.29739c-1.6698 0.16357-3.3573-0.0239-3.75-0.41666zm54.598-0.16639c-0.65309-0.41528-1.6544-1.9834-2.2252-3.4847l-1.0378-2.7296h-24.154l-1.0458 3c-0.9143 2.6227-1.5231 3-4.8415 3h-3.7957l10.258-21.75c5.6418-11.962 10.811-21.75 11.487-21.75 1.1952 0 21.011 40.75 21.032 43.25 0.0112 1.3645-3.7746 1.6741-5.6772 0.46434zm-7.78-15.464c-0.75098-1.7875-2.722-6.1111-4.3801-9.608l-3.0146-6.358-2.954 5.858c-1.6247 3.2219-3.6577 7.5455-4.5179 9.608l-1.5639 3.75h17.796zm-420.39 13.091c-14.109-6.9835-15.428-28.711-2.2686-37.359 7.1065-4.6704 17.511-5.0557 23.905-0.88517l2.2777 1.4858-2.8688 2.414c-2.5575 2.152-3.2534 2.2959-6.4135 1.326-5.1411-1.5778-10.569-0.22687-14.373 3.5776-10.013 10.013-0.93214 26.798 13.077 24.17 3.431-0.64366 9.5229-4.9036 9.5229-6.6592 0-0.50111-2.25-0.91111-5-0.91111-4.8889 0-5-0.0667-5-3v-3h19.263l-0.55876 4.1658c-0.74529 5.5566-5.2044 11.653-10.612 14.507-5.9093 3.1198-14.843 3.1914-20.951 0.16794zm193.86-16.841v-3h23v6h-23z" fill="#6f0b0b"/>
  <path d="m135.68 326.35c-0.3759-0.3759-0.68345-18.833-0.68345-41.017v-40.333h22v59.947l29.162 0.55347-6.5e-4 10.5-6.6e-4 10.5-24.897 0.26679c-13.693 0.14673-25.205-0.0408-25.58-0.41667zm102.32-0.44807c-12.332-2.4084-23.565-11.49-29.286-23.679-2.8587-6.0898-3.1534-7.6185-3.1278-16.223 0.0222-7.4641 0.51377-10.733 2.2937-15.252 4.4121-11.202 13.488-19.92 24.924-23.939 4.4814-1.5751 7.6023-1.913 15.195-1.6454 8.3958 0.2959 10.362 0.73406 16.2 3.6109 7.8944 3.89 15.351 11.546 19.457 19.978 2.5419 5.2196 2.8011 6.7598 2.8215 16.765 0.0212 10.401-0.15675 11.38-3.1782 17.5-8.4863 17.188-26.882 26.481-45.299 22.885zm13.553-21.854c5.6402-4.2584 11.332-10.849 13.252-15.345 1.534-3.5915 1.534-10.864 3e-5 -14.231-2.6279-5.7676-11.218-7.2634-15.632-2.7221l-2.6731 2.75-2.6862-2.75c-6.5803-6.7365-17.814 0.01345-17.814 10.704 0 6.1841 5.495 14.55 13.881 21.133 3.0906 2.4262 5.8034 4.4116 6.0284 4.412 0.22502 3.5e-4 2.7648-1.778 5.644-3.9518zm66.926-17.637c-10.438-22.373-19.134-41.084-19.324-41.579-0.19556-0.51073 4.324-0.77753 10.436-0.61606l10.781 0.28479 10.494 22.773c5.7716 12.525 10.924 22.63 11.451 22.454s5.6782-10.536 11.448-23.023l10.491-22.704h10.372c5.7044 0 10.372 0.18257 10.372 0.40571 0 0.39493-17.099 37.579-23.266 50.594-1.6939 3.575-5.6904 12.125-8.8811 19l-5.8013 12.5-9.5941 0.58866zm84.521-0.4104v-41h51v17h-30v14h25.836l0.3514 7.25c0.559 11.533 1.5282 10.75-13.304 10.75h-12.883v15h30v18h-51zm116 0v-41h20.927l0.28651 22.25c0.15758 12.238 0.15479 30.688-6e-3 41l-0.2927 18.75h-20.915v-41zm62.929 39.695c-6.4068-1.8143-13.395-6.1277-16.48-10.172-2.7577-3.6156-5.8056-12.138-4.8777-13.639 0.30039-0.48605 5.4696-0.88373 11.487-0.88373 8.4983 0 10.941 0.30028 10.941 1.345 0 1.992 3.2241 4.5498 6.5814 5.2213 2.143 0.42861 3.6982 2e-3 5.6844-1.5607 5.306-4.1737 2.1964-11-5.0158-11.011-11.497-0.0171-22.946-6.604-27.372-15.747-8.113-16.759 5.8948-34.258 27.41-34.241 3.9669 3e-3 8.8673 0.46518 10.89 1.0269 8.9154 2.4762 17.735 11.536 19.193 19.717l0.57943 3.25h-11.408c-10.217 0-11.469-0.19288-11.994-1.8482-0.63199-1.9912-4.5143-4.1518-7.4604-4.1518-2.8608 0-7.0878 3.8765-7.0878 6.5 0 3.5992 4.0597 6.1168 11.04 6.8464 15.68 1.6389 26.3 11.796 26.3 25.154 0 10.194-5.0042 17.137-15.992 22.188-6.3173 2.9044-16.142 3.7836-22.419 2.0063zm107.72-38.987c-10.258-22.204-18.651-40.672-18.651-41.039 0-0.36737 5.1074-0.66795 11.35-0.66795h11.35l11.341 24.5c6.2376 13.475 11.626 24.5 11.974 24.5s3.9857-7.3125 8.0835-16.25l7.4506-16.25h9.7096l7.3101 15.98c6.6192 14.47 9.2012 18.685 9.5568 15.604 0.20955-1.8161 0.39187-2.2413 5.6095-13.083 2.7792-5.775 7.5616-15.9 10.628-22.5l5.5746-12 11.532-0.28174c6.3424-0.15495 11.532-0.068 11.532 0.19315 0 0.42001-11.48 25.583-21.938 48.089-2.0448 4.4-6.3619 13.738-9.5936 20.75l-5.8758 12.75h-15.174l-14.119-29.5-6.1373 13c-3.3755 7.15-6.5277 13.675-7.0049 14.5-0.62258 1.0763-2.9842 1.5817-8.3615 1.7894l-7.4938 0.28934zm106.35 39.915c0-0.38999 12.377-27.122 21.123-45.622 2.7302-5.775 7.5625-16.125 10.739-23l5.7746-12.5h10.671l18.839 40c10.361 22 18.842 40.338 18.846 40.75 4e-3 0.4125-4.6238 0.75-10.284 0.75h-10.292l-2.6975-5.5-2.6974-5.5h-34.132l-5.036 11h-10.427c-5.7347 0-10.427-0.16999-10.427-0.37776zm47.784-37.622c-3.6819-8.0833-5.7844-10.962-5.7844-7.919 0 0.59456-1.575 4.2193-3.5 8.055-1.925 3.8357-3.5 7.3992-3.5 7.919 0 0.51974 3.7989 0.94499 8.4419 0.94499h8.4419zm54.216-3v-41l21.25 0.01c20.235 9e-3 21.489 0.12244 26.25 2.3678 9.9703 4.7021 16.359 13.948 17.232 24.937 0.61827 7.7858-0.81307 13.126-5.2455 19.569-1.9175 2.7875-3.4863 5.3372-3.4863 5.666 0 0.32878 3.3791 6.3885 7.5091 13.466 4.13 7.0775 7.7781 13.569 8.107 14.426 0.5209 1.3574-0.94626 1.5581-11.391 1.5581h-11.989l-12.654-22h-14.583v22h-21v-41zm38.186-0.0348c7.6912-2.1362 11.218-11.088 7.1082-18.045-2.6492-4.4847-7.046-6.0512-16.034-5.7127l-7.7598 0.29221-0.28572 10.936c-0.15714 6.0147-0.0588 11.527 0.21862 12.25 0.61814 1.6108 11.317 1.7893 16.753 0.27944zm-649.22-68.334c-0.25442-0.25339-0.33303-10.174-0.17469-22.046l0.28788-21.585h6.0529l-0.31434 10.502c-0.17289 5.7762-0.0813 10.501 0.20353 10.5 0.28482-0.00116 5.2268-4.7271 10.982-10.502 10.201-10.235 10.578-10.5 14.976-10.5h4.5115l-19.479 19.479 24.462 24.521h-4.4679c-4.3256 0-4.7896-0.32056-14.563-10.061l-10.095-10.061-3.7404 4.1402c-3.5033 3.8777-3.7234 4.4997-3.4724 9.8111 0.25425 5.379 0.14004 5.6862-2.2186 5.9668-1.3676 0.16275-2.6948 0.0886-2.9492-0.16481zm90.35-0.41676c-0.65309-0.41528-1.6544-1.9834-2.2252-3.4847l-1.0378-2.7296h-24.154l-1.0458 3c-0.92158 2.6436-1.5104 3-4.9565 3-3.4491 0-3.7894-0.20655-2.8835-1.75 0.56496-0.9625 5.2384-10.75 10.385-21.75 5.147-11 9.9218-20 10.61-20 1.2056 0 20.947 40.699 20.978 43.25 0.0169 1.3644-3.769 1.6743-5.6719 0.46434zm-7.78-15.464c-0.75098-1.7875-2.7206-6.1081-4.3769-9.6014l-3.0115-6.3514-2.0344 3.9878c-1.1189 2.1933-3.1516 6.5139-4.517 9.6014l-2.4826 5.6136h17.788zm91.59 15.156c-4.8105-1.0046-8.2808-3.8536-10.873-8.9263-2.0432-3.9986-2.25-5.8085-2.25-19.691v-15.288h8v15.277c0 16.795 0.47131 18.432 5.9602 20.706 2.4436 1.0122 3.636 1.0122 6.0797 0 5.4921-2.2749 5.9602-3.9058 5.9602-20.766v-15.338l7.5 0.62073 0.27206 15c0.25255 13.924 0.10909 15.319-2 19.441-1.2496 2.4428-3.4609 5.3068-4.9139 6.3645-3.2861 2.392-9.2895 3.5284-13.735 2.5999zm49.591 0.47488c-0.39273-0.39274-0.71793-4.3516-0.72267-8.7974l-9e-3 -8.0833-7.491-13c-4.1201-7.15-7.4912-13.338-7.4914-13.75s1.776-0.75 3.9471-0.75c3.946 0 3.9494 4e-3 9.25 9.4782 2.9164 5.213 5.5275 9.4846 5.8025 9.4924 0.275 8e-3 2.9612-4.2573 5.9693-9.4782l5.4693-9.4924h4.3158c5.0464 0 5.5715-1.7514-4.8651 16.228-6.7523 11.633-6.8102 11.796-7.0986 20l-0.29039 8.2718-3.0359 0.29739c-1.6698 0.16357-3.3573-0.0239-3.75-0.41666zm61.153-2.8807-2.065-3.5h-23.56l-1.2426 3c-1.034 2.4962-1.81 3-4.6213 3-1.8583 0-3.3787-0.22435-3.3787-0.49854 0-2.0202 20.543-43.488 21.403-43.203 0.9463 0.31335 21.309 41.901 21.52 43.952 0.0425 0.4125-1.2879 0.75-2.9564 0.75-2.4071 0-3.4603-0.72293-5.0988-3.5zm-4.8675-9.8698c0-0.20341-1.9781-4.5909-4.3959-9.75l-4.3959-9.3802-2.6418 5.8636c-1.453 3.225-3.534 7.6125-4.6245 9.75l-1.9827 3.8864h9.0203c4.9612 0 9.0203-0.16643 9.0203-0.36984zm87.014 12.346c-3.9324-0.92456-9.0144-5.9937-9.0144-8.9915 0-3.143 5.342-2.7237 6.8272 0.53586 3.2152 7.0565 16.173 4.4286 16.173-3.28 0-2.9227-4.0043-6.0084-9.3525-7.207-9.8198-2.2007-13.648-5.7158-13.648-12.533 0-7.2543 5.3928-11.72 14.072-11.653 6.2754 0.0486 10.728 2.4292 12.507 6.687 1.8944 4.534 1.9262 4.4657-2.0788 4.4657-2.2652 0-3.5-0.47452-3.5-1.345 0-4.4435-10.064-6.4518-13.47-2.6881-2.0576 2.2736-2.3266 6.3684-0.55829 8.499 0.67194 0.80964 4.9836 2.6195 9.5815 4.022 9.6754 2.9512 11.447 4.7552 11.447 11.658 0 5.7949-3.3638 10.306-8.8143 11.819-4.1749 1.1595-5.2797 1.1607-10.171 0.0106zm65.298 0.23859c-0.65309-0.41528-1.6544-1.9834-2.2252-3.4847l-1.0378-2.7296h-24.223l-1.1324 3c-0.98738 2.6159-1.624 3-4.9722 3-2.8244 0-3.6319-0.33054-3.0536-1.25 0.43237-0.6875 5.107-10.475 10.388-21.75 5.2811-11.275 10.175-20.5 10.875-20.5 1.2077 0 20.959 40.613 21.033 43.25 0.0386 1.364-3.7479 1.6751-5.652 0.46434zm-9.9309-19.964c-1.9623-4.2625-3.7991-8.3125-4.0817-9-1.1615-2.8252-2.1372-1.4088-7.922 11.5l-2.3527 5.25h17.924zm66.332 20.131c-0.39273-0.39274-0.71406-6.9755-0.71406-14.628v-13.914l-15.379 14.032-5.6672-4.9096c-3.117-2.7002-6.2368-5.596-6.9331-6.4349-0.69627-0.83896-1.6608-1.5254-2.1435-1.5254-0.48266 0-0.87756 6.075-0.87756 13.5v13.5h-8v-22c0-12.419 0.39312-22 0.90271-22 0.49648 0 5.559 4.2591 11.25 9.4647 5.691 5.2056 10.797 9.4722 11.347 9.4814 0.55 9e-3 5.6567-4.2499 11.348-9.4647 5.6916-5.2148 10.763-9.4814 11.269-9.4814 0.54162 0 0.81003 9.1633 0.65173 22.25l-0.26913 22.25-3.0359 0.29739c-1.6698 0.16357-3.3573-0.0239-3.75-0.41666zm54.598-0.16639c-0.65309-0.41528-1.6544-1.9834-2.2252-3.4847l-1.0378-2.7296h-24.154l-1.0458 3c-0.9143 2.6227-1.5231 3-4.8415 3h-3.7957l10.258-21.75c5.6418-11.962 10.811-21.75 11.487-21.75 1.1952 0 21.011 40.75 21.032 43.25 0.0112 1.3645-3.7746 1.6741-5.6772 0.46434zm-7.78-15.464c-0.75098-1.7875-2.722-6.1111-4.3801-9.608l-3.0146-6.358-2.954 5.858c-1.6247 3.2219-3.6577 7.5455-4.5179 9.608l-1.5639 3.75h17.796zm-420.39 13.091c-14.109-6.9835-15.428-28.711-2.2686-37.359 7.1065-4.6704 17.511-5.0557 23.905-0.88517l2.2777 1.4858-2.8688 2.414c-2.5575 2.152-3.2534 2.2959-6.4135 1.326-5.1411-1.5778-10.569-0.22687-14.373 3.5776-10.013 10.013-0.93214 26.798 13.077 24.17 3.431-0.64366 9.5229-4.9036 9.5229-6.6592 0-0.50111-2.25-0.91111-5-0.91111-4.8889 0-5-0.0667-5-3v-3h19.263l-0.55876 4.1658c-0.74529 5.5566-5.2044 11.653-10.612 14.507-5.9093 3.1198-14.843 3.1914-20.951 0.16794zm193.86-16.841v-3h23v6h-23z" fill="#2c2b2b"/>
  <path d="m135.77 308.75c-0.15019-9.4875-0.14443-27.712 0.0128-40.5l0.28586-23.25 20.428 2.7e-4v60.5l29.5 0.55347v19.947h-49.954l-0.27308-17.25zm96.227 15.22c-17.743-6.391-29.151-25.72-26.097-44.214 2.3082-13.977 10.728-25.349 23.028-31.105 5.2711-2.4666 8.1806-3.135 15.051-3.4576 17.974-0.84383 31.977 7.7484 39.727 24.376 2.4344 5.2233 2.7654 7.122 2.7771 15.93 0.0122 9.1806-0.2477 10.551-3.1717 16.723-4.2802 9.0352-11.018 16.047-19.226 20.008-5.8528 2.8244-7.7066 3.2099-16.589 3.4501-7.9462 0.21483-11.13-0.13654-15.5-1.7108zm18.6-18.813c4.8464-3.5321 11.75-10.99 13.695-14.793 3.6539-7.1471 2.8017-15.57-1.9537-19.311-3.8144-3.0004-10.298-2.7927-13.323 0.42681l-2.3302 2.4804-2.4804-2.4804c-2.7918-2.7918-8.1182-3.2916-12.018-1.1276-3.6235 2.0107-6.1759 6.6885-6.1832 11.332-9e-3 5.4775 1.3295 8.7989 5.6875 14.117 3.5134 4.2877 12.752 12.198 14.246 12.198 0.41809 0 2.5152-1.2791 4.6602-2.8424zm84.566 16.246c-5.7702-11.877-35.165-75.22-35.165-75.777 0-0.34475 4.6125-0.6191 10.25-0.60965l10.25 0.0172 10.5 22.973c5.775 12.635 10.765 22.977 11.089 22.983 0.32397 6e-3 5.3282-10.227 11.121-22.74l10.532-22.75 21.057-0.56561-12.26 26.283c-6.7432 14.456-15.175 32.583-18.736 40.283l-6.4758 14-9.8834 0.5892zm67.835-35.904v-40.5h51v17h-30v14h26v18h-26v16h30v16h-51zm116 0v-40.5h21v81h-21zm58.869 38.595c-2.5468-0.99619-6.1868-2.9982-8.0887-4.4489-4.0041-3.0541-8.7807-11.231-8.7807-15.032v-2.6147h10.933c9.7551 0 10.996 0.19906 11.519 1.8482 0.67491 2.1264 4.5699 4.1518 7.9844 4.1518 5.9027 0 9.1197-7.5119 4.7369-11.061-1.1422-0.92494-5.4974-2.1905-9.6782-2.8123-11.604-1.7258-18.427-5.912-22.834-14.008-8.5898-15.782 3.6639-33.567 24.048-34.904 3.9997-0.26227 9.3424 0.0602 12 0.7244 10.077 2.5182 18.179 10.157 20.169 19.017l0.90863 4.044h-11.394c-9.2621 0-11.394-0.27002-11.394-1.4433 0-2.1778-4.0316-4.5567-7.7225-4.5567-6.1782 0-9.5513 6.7262-5.4366 10.841 1.1988 1.1988 4.0466 2.0714 8.1641 2.5018 16.259 1.6994 27.138 11.784 27.138 25.157 0 14.665-12.113 24.561-29.93 24.453-4.974-0.0302-9.3567-0.6899-12.343-1.858zm127.17-4.3452c-1.5618-3.4375-9.8585-21.482-18.437-40.098-8.5788-18.617-15.598-34.029-15.598-34.25 0-0.22094 5.0767-0.4017 11.282-0.4017h11.282l11.468 24.991c6.3076 13.745 11.693 24.988 11.968 24.985 0.275-3e-3 3.936-7.5368 8.1355-16.741l7.6355-16.735 8.8824-0.59543 6.1373 13.298c3.3755 7.3137 7.0203 15.098 8.0994 17.298l1.9621 4 5.4023-11.5c2.9712-6.325 8.2613-17.688 11.756-25.25l6.3533-13.75h11.425c8.7484 0 11.304 0.29286 10.91 1.25-0.41869 1.0153-32.175 69.456-35.978 77.538-1.006 2.1381-1.5896 2.2688-8.9333 2l-7.857-0.28757-6.666-14.249c-3.6663-7.8371-6.9794-13.912-7.3624-13.5-0.383 0.41212-3.5013 6.9368-6.9295 14.499l-6.2331 13.75h-15.865zm93.108 2c1.2008-2.3375 9.748-20.45 18.994-40.25l16.811-36h10.088l15.082 32c8.2953 17.6 16.808 35.712 18.918 40.25l3.8353 8.25h-20.815l-2.151-5-2.1509-5h-34.72l-5.0674 10h-21.007zm48.505-27c-2.7106-6.3874-7.0753-14.75-7.6984-14.75-0.34877 0-2.4789 4.05-4.7336 9l-4.0995 9h17.911zm51.852-9.2499v-40.5l20.072-5e-5c23.083-7e-5 26.583 0.74298 33.92 7.2017 7.0611 6.2154 9.8879 12.548 9.954 22.298 0.0585 8.6393-1.9364 14.152-7.1024 19.625l-2.4774 2.6247 6.6967 11.375c3.6832 6.2564 7.5751 12.838 8.6486 14.625l1.9518 3.25h-24.09l-12.76-21.5h-13.813l-0.56766 21.5-20.432 1.1e-4zm41.665-0.86264c3.3459-2.2049 6.0856-8.7721 5.1852-12.429-1.9126-7.7687-6.1668-10.208-17.801-10.208h-8.5497v11.833c0 6.5083 0.3375 12.179 0.75 12.601 1.4505 1.4853 17.59 0.0645 20.415-1.7972zm-653.17-88.637v-22h5v11c0 6.05 0.34517 11 0.76705 11s5.7017-4.95 11.733-11c10.189-10.221 11.24-11 14.841-11h3.8746l-19.327 19.358 11.556 11.586c6.3557 6.3723 11.556 11.917 11.556 12.321s-1.6402 0.73498-3.645 0.73498c-3.2727 0-4.6823-1.0208-13.802-9.995l-10.157-9.995-3.6981 3.7872c-3.4602 3.5436-3.6981 4.1864-3.6981 9.995 0 5.955-0.10181 6.2078-2.5 6.2078h-2.5zm54.167 20.034c0.18333-0.53137 4.6083-10.201 9.8333-21.489 6.6208-14.303 9.9486-20.447 10.98-20.274 1.197 0.20087 20.641 39.181 20.94 41.979 0.044 0.4125-1.2584 0.75-2.8943 0.75-2.2934 0-3.3295-0.68681-4.5257-3l-1.5514-3h-23.897l-1.5514 3c-1.2106 2.341-2.223 3-4.609 3-1.6817 0-2.9077-0.43476-2.7243-0.96613zm29.84-10.784c0.0117-1.3013-8.3388-19.25-8.956-19.25-0.61883 0-9.0657 17.955-9.0563 19.25 3e-3 0.4125 4.0555 0.75 9.0055 0.75s9.003-0.3375 9.0068-0.75zm32.493 9.8541c-20.507-9.4943-14.016-41.104 8.4399-41.104 4.8559 0 13.06 2.4714 13.06 3.9343 0 0.3944-1.0825 1.7341-2.4056 2.9771-1.9576 1.8391-2.7835 2.0578-4.4343 1.1743-3.1812-1.7025-9.3477-1.2687-12.919 0.90892-9.538 5.8154-9.538 19.195 0 25.011 5.5521 3.3852 12.227 2.5066 17.509-2.3047 3.3128-3.0174 2.805-3.7007-2.75-3.7007-4.6667 0-5-0.16667-5-2.5 0-2.4912 0.0333-2.5 9.5-2.5 10.756 0 10.976 0.21736 7.6041 7.5-4.9505 10.693-17.98 15.523-28.604 10.604zm53.825 0.28436c-7.6029-3.7495-9.2234-8.488-9.2808-27.138l-0.04389-14.25 7.5 4e-3v30.163l3.2658 2.9165c4.3385 3.8745 8.4323 3.8723 12.311-7e-3l2.9231-2.9226v-30.154l7.5-4e-3 -0.5 16.752c-0.42641 14.286-0.78004 17.165-2.4028 19.559-4.0625 5.9944-14.409 8.4657-21.273 5.0809zm53.622-6.1385-0.0538-7.75-15.734-27 3.0159-0.32046c1.6587-0.17625 3.5851-0.10204 4.2808 0.16491 0.69567 0.26696 3.4334 4.3487 6.0837 9.0705 2.6504 4.7218 5.1324 8.5851 5.5156 8.5851s3.0342-4.05 5.891-9c5.1801-8.9755 5.2051-9 9.2076-9 2.2074 0 3.8634 0.35203 3.6801 0.78229-0.18333 0.43026-3.5958 6.4463-7.5833 13.369l-7.25 12.587v16.262h-7l-0.0538-7.75zm26.787 6.0038c3.3928-8.8416 19.273-40.816 20.378-41.032 0.94636-0.18511 3.2458 3.6743 6.8518 11.5 2.985 6.4782 7.56 16.166 10.167 21.529l4.7392 9.75h-3.5213c-2.9943 0-3.6908-0.44902-4.6537-3l-1.1324-3h-24.666l-1.0458 3c-0.88307 2.5332-1.5704 3-4.4166 3-2.7967 0-3.2567-0.29743-2.7007-1.7462zm29.267-10.211c0-1.4898-8.2093-19.046-8.8924-19.017-0.51956 0.0219-6.6488 12.923-8.6582 18.224-0.60159 1.5871 0.18431 1.75 8.4437 1.75 5.1336 0 9.107-0.41765 9.107-0.95726zm83.314 10.007c-5.8405-3.5612-7.2438-9.0498-2.3138-9.0498 1.9322 0 3 0.50806 3 1.4274 0 2.3589 5.0058 5.5726 8.6803 5.5726 3.9478 0 8.3197-3.6891 8.3197-7.0203 0-4.2867-1.8931-5.8261-10.329-8.3993-9.3884-2.8636-11.612-4.7228-12.365-10.34-1.1449-8.5357 4.811-13.762 14.856-13.035 4.7419 0.343 6.4049 0.96301 8.8397 3.2957 3.9594 3.7934 3.9871 6.499 0.0664 6.499-2.0232 0-3.1234-0.60105-3.5478-1.9382-0.33834-1.066-2.1301-2.4382-3.9816-3.0492-7.5117-2.4791-14.07 4.1195-9.7905 9.851 1.8776 2.5148 3.1266 3.0972 10.957 5.1089 2.3125 0.5941 5.575 2.2333 7.25 3.6428 2.45 2.0616 3.0455 3.337 3.0455 6.5234 0 5.1116-2.2739 9.4346-5.9673 11.345-4.2017 2.1728-12.811 1.9497-16.719-0.4333zm32.686 1.402c0-0.30152 4.008-9.0396 8.9066-19.418 4.8986-10.378 9.2121-19.832 9.5854-21.009 1.5276-4.813 4.0221-1.2919 13.713 19.356 5.3874 11.479 9.7953 21.039 9.7953 21.245 0 0.20587-1.3384 0.3743-2.9743 0.3743-2.2934 0-3.3295-0.68681-4.5257-3l-1.5514-3h-23.897l-1.5514 3c-1.1962 2.3132-2.2323 3-4.5257 3-1.6359 0-2.9743-0.2467-2.9743-0.54822zm30.007-11.202c0.01231-1.3668-8.3549-19.25-9.0068-19.25s-9.0191 17.883-9.0068 19.25c4e-3 0.4125 4.0568 0.75 9.0068 0.75s9.003-0.3375 9.0068-0.75zm22.993-9.75c0-16.783 0.28036-21.5 1.2778-21.5 1.0857 0 4.7572 3.1002 20.255 17.104 2.0016 1.8086 2.1951 1.6906 12.5-7.6167 5.7568-5.1995 11.029-9.4612 11.717-9.4705 0.96176-0.0129 1.25 4.9409 1.25 21.483v21.5h-7.9451l-0.27745-13.992-0.27746-13.992-15.026 13.715-14.974-13.62-0.27746 13.945-0.27745 13.945h-7.9451zm58.198 20.407c0.20035-0.60104 4.6254-10.269 9.8333-21.484 6.4808-13.956 9.9281-20.316 10.924-20.152 1.0982 0.18044 21.045 40.325 21.045 42.355 0 0.20587-1.3384 0.3743-2.9743 0.3743-2.2934 0-3.3295-0.68681-4.5257-3l-1.5514-3h-23.897l-1.5514 3c-1.2106 2.341-2.223 3-4.609 3-1.7671 0-2.9039-0.46124-2.6934-1.0928zm29.809-10.657c0.0117-1.3013-8.3388-19.25-8.956-19.25-0.61883 0-9.0657 17.955-9.0563 19.25 3e-3 0.4125 4.0555 0.75 9.0055 0.75s9.003-0.3375 9.0068-0.75zm-228.01-7.75v-2.5h23v5h-23z"/>
 </g>
</svg>
